<svg xmlns="http://www.w3.org/2000/svg" xmlns:xlink="http://www.w3.org/1999/xlink" width="1000" zoomAndPan="magnify" viewBox="0 0 750 749.999995" height="1000" preserveAspectRatio="xMidYMid meet" version="1.0"><path fill="#000000" d="M 407.035156 77.769531 C 398.054688 79.148438 389.558594 82.558594 382.492188 87.617188 C 381.59375 88.257812 380.691406 88.78125 380.480469 88.78125 C 380.273438 88.78125 379.695312 88.636719 379.195312 88.464844 C 377.550781 87.882812 372.722656 86.992188 370.03125 86.769531 C 366.746094 86.503906 362.296875 86.8125 358.550781 87.570312 C 347.949219 89.710938 338.480469 96.171875 332.394531 105.417969 C 330.867188 107.730469 328.972656 111.574219 328.234375 113.835938 L 327.71875 115.421875 L 326.507812 115.667969 C 318.242188 117.328125 310.785156 121.691406 305.609375 127.890625 C 301.261719 133.097656 298.75 138.511719 297.640625 145.074219 C 297.222656 147.550781 297.171875 148.488281 297.269531 152.015625 C 297.394531 156.539062 297.777344 158.796875 299.050781 162.542969 C 300.863281 167.871094 303.480469 171.996094 307.757812 176.261719 C 311.164062 179.65625 313.683594 181.460938 317.695312 183.386719 C 322.402344 185.648438 328.003906 187.042969 332.339844 187.042969 L 333.445312 187.042969 L 319.203125 201.3125 C 311.371094 209.15625 304.851562 215.792969 304.71875 216.058594 C 304.554688 216.378906 304.476562 218.90625 304.476562 223.671875 L 304.476562 230.808594 L 303.230469 231.324219 C 300.550781 232.433594 298.082031 235.523438 297.449219 238.554688 C 296.328125 243.929688 299.894531 249.332031 305.3125 250.472656 C 308.722656 251.191406 311.695312 250.285156 314.410156 247.703125 C 319.429688 242.925781 318.039062 234.503906 311.738281 231.5 L 310.230469 230.777344 L 310.214844 224.609375 L 310.203125 218.4375 L 325.902344 202.742188 L 341.601562 187.042969 L 360.65625 187.042969 L 360.65625 197.550781 L 351.789062 206.339844 C 346.910156 211.175781 342.699219 215.425781 342.425781 215.78125 C 341.933594 216.425781 341.929688 216.507812 341.929688 223.621094 L 341.929688 230.8125 L 340.554688 231.441406 C 337.707031 232.746094 335.425781 235.792969 334.882812 239.015625 C 333.832031 245.246094 339.238281 251.136719 345.566406 250.652344 C 350.894531 250.246094 354.910156 245.957031 354.925781 240.65625 C 354.933594 236.566406 352.863281 233.203125 349.289062 231.515625 L 347.949219 230.878906 L 347.804688 226.753906 C 347.722656 224.484375 347.660156 221.734375 347.660156 220.640625 L 347.65625 218.660156 L 356.824219 209.515625 C 361.96875 204.382812 366.125 200.0625 366.296875 199.664062 C 366.535156 199.113281 366.605469 197.621094 366.605469 193 L 366.605469 187.042969 L 380.925781 187.042969 L 380.921875 208.910156 L 380.914062 230.777344 L 379.378906 231.519531 C 376.601562 232.859375 374.40625 235.839844 373.84375 239.03125 C 373.324219 241.984375 374.449219 245.375 376.691406 247.621094 C 380.785156 251.714844 386.9375 251.730469 391.023438 247.660156 C 394.039062 244.648438 394.792969 239.9375 392.878906 236.003906 C 391.859375 233.914062 389.054688 231.441406 387.15625 230.964844 C 386.808594 230.878906 386.671875 230.722656 386.75 230.511719 C 386.820312 230.335938 386.875 220.484375 386.875 208.617188 L 386.875 187.042969 L 401.195312 187.042969 L 401.195312 193.226562 C 401.195312 198.171875 401.257812 199.523438 401.511719 200 C 401.6875 200.328125 405.898438 204.660156 410.875 209.625 L 419.921875 218.660156 L 419.921875 230.808594 L 418.65625 231.328125 C 417.027344 231.996094 414.550781 234.4375 413.699219 236.203125 C 410.859375 242.125 414.476562 249.234375 420.980469 250.507812 C 425.957031 251.484375 430.957031 248.441406 432.480469 243.511719 C 433.941406 238.773438 431.667969 233.601562 427.191406 231.496094 L 425.660156 230.777344 L 425.65625 223.660156 C 425.652344 217.910156 425.589844 216.433594 425.335938 215.949219 C 425.160156 215.625 420.949219 211.292969 415.972656 206.324219 L 406.925781 197.292969 L 406.925781 187.089844 L 413.808594 186.984375 C 418.722656 186.90625 421.324219 186.769531 422.890625 186.511719 L 425.085938 186.148438 L 441.230469 202.292969 L 457.378906 218.4375 L 457.378906 230.847656 L 456 231.496094 C 451.464844 233.640625 449.25 238.8125 450.765625 243.710938 C 452.285156 248.640625 457.75 251.6875 462.734375 250.386719 C 470.484375 248.371094 473.089844 239.046875 467.464844 233.453125 C 466.566406 232.558594 465.597656 231.851562 464.703125 231.441406 L 463.324219 230.8125 L 463.324219 223.8125 C 463.324219 219.441406 463.238281 216.585938 463.09375 216.207031 C 462.964844 215.871094 455.882812 208.601562 447.351562 200.054688 L 431.84375 184.511719 L 434.199219 183.65625 C 441.730469 180.917969 448.433594 176.617188 454.304688 170.75 C 459.105469 165.953125 462.292969 161.570312 464.96875 156.089844 C 467.730469 150.433594 469.070312 146.023438 470.195312 138.90625 C 470.609375 136.265625 470.539062 128.273438 470.070312 125.023438 C 467.644531 108.167969 458.394531 94.101562 443.96875 85.316406 C 437.632812 81.460938 431.007812 79.046875 423.554688 77.878906 C 420.492188 77.398438 419.359375 77.328125 414.855469 77.34375 C 411.007812 77.359375 409 77.46875 407.035156 77.769531 M 410.007812 83.304688 C 400.796875 84.238281 391.773438 87.8125 384.378906 93.453125 C 383.273438 94.296875 382.117188 94.996094 381.695312 95.074219 C 381.148438 95.179688 380.28125 94.984375 378.332031 94.324219 C 374.203125 92.925781 372.308594 92.644531 366.9375 92.652344 C 361.851562 92.65625 359.792969 92.960938 355.699219 94.308594 C 345.0625 97.808594 336.277344 106.835938 333.203125 117.417969 C 332.90625 118.445312 332.515625 119.507812 332.335938 119.78125 C 331.863281 120.503906 330.835938 120.960938 329.175781 121.195312 C 319.871094 122.511719 311.628906 128.054688 306.867188 136.203125 C 305.539062 138.476562 304.296875 141.800781 303.65625 144.792969 C 302.925781 148.207031 302.832031 153.148438 303.445312 156.308594 C 305.210938 165.449219 310.789062 173.121094 318.796875 177.421875 C 323.339844 179.867188 327.738281 180.980469 333.832031 181.230469 L 337.523438 181.382812 L 337.515625 168.074219 L 337.511719 154.769531 L 336.15625 153.996094 C 333.09375 152.25 331.324219 148.417969 332.019531 145.035156 C 332.589844 142.265625 334.34375 139.964844 336.878906 138.671875 C 338.300781 137.945312 340.859375 137.703125 342.710938 138.117188 C 345.324219 138.703125 347.828125 141.078125 348.765625 143.863281 C 349.433594 145.855469 349.3125 148.351562 348.460938 150.097656 C 347.636719 151.777344 346.152344 153.367188 344.691406 154.132812 L 343.472656 154.769531 L 343.472656 181.316406 L 360.65625 181.316406 L 360.65625 172.070312 L 359.59375 171.53125 C 358.117188 170.78125 356.1875 168.636719 355.570312 167.058594 C 354.867188 165.25 354.863281 162.527344 355.566406 160.75 C 357.519531 155.824219 363.453125 153.699219 367.859375 156.34375 C 369.699219 157.445312 370.492188 158.296875 371.410156 160.15625 C 372.175781 161.699219 372.222656 161.917969 372.222656 163.90625 C 372.222656 165.847656 372.167969 166.128906 371.492188 167.5 C 370.65625 169.203125 369.007812 170.941406 367.578125 171.632812 L 366.605469 172.101562 L 366.605469 181.316406 L 380.925781 181.316406 L 380.925781 134.476562 L 380.152344 134.195312 C 378.867188 133.734375 376.832031 131.667969 376.027344 130.011719 C 375.375 128.664062 375.316406 128.375 375.3125 126.34375 C 375.308594 124.289062 375.359375 124.035156 376.03125 122.664062 C 376.984375 120.726562 378.375 119.328125 380.214844 118.457031 C 381.574219 117.8125 381.878906 117.753906 383.914062 117.753906 C 385.996094 117.753906 386.214844 117.800781 387.605469 118.503906 C 393.023438 121.253906 394.183594 128.296875 389.902344 132.476562 C 389.257812 133.105469 388.3125 133.808594 387.800781 134.039062 L 386.875 134.457031 L 386.875 181.316406 L 401.195312 181.316406 L 401.195312 172.152344 L 400.257812 171.695312 C 398.699219 170.933594 397.097656 169.324219 396.300781 167.703125 C 395.621094 166.324219 395.578125 166.09375 395.578125 163.914062 C 395.578125 161.734375 395.621094 161.5 396.300781 160.125 C 397.125 158.445312 398.816406 156.757812 400.441406 155.996094 C 406.597656 153.101562 413.507812 158.335938 412.617188 165.210938 C 412.285156 167.773438 410.261719 170.527344 407.855469 171.699219 L 406.914062 172.15625 L 406.976562 176.679688 L 407.035156 181.207031 L 410.007812 181.273438 C 413.527344 181.355469 420.757812 180.96875 422.789062 180.589844 L 424.21875 180.320312 L 424.277344 167.628906 L 424.332031 154.9375 L 422.863281 154.082031 C 416.878906 150.59375 417.109375 142.117188 423.285156 138.769531 C 424.609375 138.050781 424.746094 138.023438 427.082031 138.023438 C 429.320312 138.023438 429.609375 138.074219 430.828125 138.671875 C 432.515625 139.5 434.203125 141.183594 435.027344 142.871094 C 435.621094 144.078125 435.675781 144.394531 435.675781 146.511719 C 435.675781 148.683594 435.632812 148.921875 434.953125 150.292969 C 434.148438 151.933594 432.382812 153.71875 430.9375 154.355469 L 430.058594 154.742188 L 430.058594 166.816406 C 430.058594 173.460938 430.105469 178.894531 430.164062 178.894531 C 430.636719 178.894531 435.386719 176.902344 437.582031 175.78125 C 444.488281 172.265625 450.867188 166.882812 455.308594 160.828125 C 460.191406 154.171875 463.492188 145.753906 464.417969 137.582031 C 464.9375 133.003906 464.578125 126.480469 463.542969 121.71875 C 460.847656 109.339844 453.089844 98.179688 442.285156 91.144531 C 432.902344 85.035156 421.125 82.171875 410.007812 83.304688 M 413.597656 89.140625 C 412.925781 89.472656 411.992188 90.929688 411.992188 91.644531 C 411.992188 92.289062 412.894531 93.765625 413.511719 94.132812 C 413.980469 94.40625 415 94.570312 417.207031 94.71875 C 426.738281 95.359375 434.097656 98.535156 441.777344 105.324219 C 443.582031 106.917969 445.769531 106.671875 446.667969 104.773438 C 447.386719 103.257812 446.96875 102.152344 445.015625 100.375 C 438.019531 94.015625 429.25 90.0625 419.8125 89.007812 C 416.859375 88.675781 414.433594 88.730469 413.597656 89.140625 M 448.71875 109.460938 C 447.796875 110.070312 447.425781 110.726562 447.410156 111.78125 C 447.382812 113.488281 448.589844 114.78125 450.207031 114.78125 C 451.84375 114.78125 453.191406 113.488281 453.191406 111.914062 C 453.191406 109.730469 450.527344 108.269531 448.71875 109.460938 M 383.171875 123.605469 C 380.046875 124.277344 380.527344 129.101562 383.71875 129.101562 C 385.460938 129.101562 386.65625 127.980469 386.65625 126.347656 C 386.65625 124.511719 385.003906 123.214844 383.171875 123.605469 M 266.140625 134.828125 C 265.097656 135.871094 265.871094 136.949219 267.898438 137.269531 C 268.679688 137.394531 269.34375 137.519531 269.371094 137.546875 C 269.449219 137.625 265.832031 139.617188 262.394531 141.394531 C 247.09375 149.300781 231.132812 160.03125 217.128906 171.824219 C 192.414062 192.636719 171.28125 218.808594 156.449219 246.960938 C 155.464844 248.832031 154.65625 250.394531 154.65625 250.429688 C 154.65625 250.46875 155.339844 250.496094 156.171875 250.496094 L 157.6875 250.496094 L 160.15625 245.957031 C 173.808594 220.84375 190.878906 199.242188 212.824219 179.308594 C 224.460938 168.738281 238.71875 158.234375 252.179688 150.3125 C 257.273438 147.316406 257.601562 147.132812 257.984375 147.050781 C 258.167969 147.015625 261.089844 145.441406 264.476562 143.558594 C 267.863281 141.675781 270.667969 140.164062 270.707031 140.203125 C 270.746094 140.246094 270.515625 140.890625 270.1875 141.640625 L 269.597656 143.003906 L 270.039062 143.597656 C 270.582031 144.332031 271.628906 144.496094 272.125 143.929688 C 272.316406 143.710938 273.140625 142.023438 273.957031 140.175781 C 275.53125 136.621094 275.625 136.015625 274.683594 135.535156 C 274.199219 135.289062 268.269531 134.386719 267.132812 134.386719 C 266.828125 134.386719 266.382812 134.585938 266.140625 134.828125 M 489.765625 139.074219 L 489.765625 140.675781 L 492.132812 141.84375 C 517.050781 154.136719 541.808594 172.566406 561.570312 193.542969 C 566.082031 198.332031 570.804688 203.648438 572.207031 205.515625 C 572.691406 206.164062 575.117188 208.929688 577.59375 211.660156 C 580.070312 214.390625 582.054688 216.667969 582 216.71875 C 581.945312 216.773438 581.320312 216.710938 580.613281 216.582031 C 579.472656 216.371094 579.261719 216.390625 578.773438 216.753906 C 578.472656 216.976562 578.191406 217.417969 578.15625 217.734375 C 578.027344 218.789062 578.648438 219.089844 582.488281 219.839844 C 584.445312 220.222656 586.242188 220.535156 586.480469 220.535156 C 586.71875 220.535156 587.085938 220.273438 587.292969 219.960938 C 587.644531 219.421875 587.644531 219.128906 587.335938 215.519531 C 587.027344 211.96875 586.957031 211.621094 586.496094 211.246094 C 585.839844 210.710938 585.269531 210.730469 584.695312 211.308594 C 584.28125 211.722656 584.238281 211.957031 584.332031 213.414062 C 584.417969 214.722656 584.382812 214.996094 584.167969 214.765625 C 581.65625 212.074219 576.382812 206.109375 573.789062 203.019531 C 551.453125 176.425781 523.699219 154.449219 493.125 139.152344 L 489.765625 137.46875 Z M 339.933594 143.871094 C 338.335938 144.300781 337.625 145.3125 337.804688 146.898438 C 338.132812 149.824219 342.285156 150.277344 343.210938 147.488281 C 343.90625 145.402344 342.011719 143.308594 339.933594 143.871094 M 426.210938 143.972656 C 425.203125 144.332031 424.617188 144.996094 424.421875 146.007812 C 424.230469 146.984375 424.445312 147.703125 425.171875 148.519531 C 425.667969 149.074219 426 149.226562 426.875 149.300781 C 429.503906 149.527344 430.957031 146.769531 429.269531 144.761719 C 428.769531 144.167969 428.472656 144.003906 427.414062 143.746094 C 427.230469 143.703125 426.691406 143.804688 426.210938 143.972656 M 362.511719 161.359375 C 360.175781 162.378906 360.34375 165.761719 362.773438 166.5625 C 363.914062 166.9375 364.917969 166.667969 365.707031 165.769531 C 366.992188 164.304688 366.492188 162.097656 364.703125 161.351562 C 363.808594 160.976562 363.386719 160.980469 362.511719 161.359375 M 402.738281 161.4375 C 400.582031 162.605469 400.871094 165.890625 403.191406 166.585938 C 405.496094 167.273438 407.46875 165.234375 406.710938 162.9375 C 406.199219 161.394531 404.207031 160.644531 402.738281 161.4375 M 622.617188 213.042969 C 622.203125 213.457031 622.175781 213.777344 622.175781 218.1875 C 622.175781 222.582031 622.203125 222.914062 622.609375 223.28125 C 622.847656 223.496094 623.296875 223.671875 623.609375 223.671875 C 623.917969 223.671875 624.371094 223.496094 624.609375 223.28125 C 625.011719 222.914062 625.039062 222.582031 625.039062 218.1875 C 625.039062 213.777344 625.011719 213.457031 624.601562 213.042969 C 624.359375 212.800781 623.910156 212.601562 623.609375 212.601562 C 623.304688 212.601562 622.859375 212.800781 622.617188 213.042969 M 593.675781 226.5 C 593 227.027344 592.925781 227.78125 593.480469 228.417969 C 594.21875 229.269531 600.402344 233.972656 600.96875 234.117188 C 601.421875 234.230469 601.652344 234.132812 602.054688 233.664062 C 603.035156 232.527344 602.929688 232.390625 598.382812 228.753906 C 595.691406 226.605469 594.875 226.042969 594.460938 226.042969 C 594.347656 226.042969 593.996094 226.246094 593.675781 226.5 M 648.246094 229.632812 C 644.390625 232.675781 644.09375 233.046875 644.65625 234.097656 C 645.027344 234.792969 645.878906 234.964844 646.601562 234.496094 C 648.230469 233.433594 653.6875 228.839844 653.707031 228.511719 C 653.777344 227.507812 653.175781 226.703125 652.351562 226.703125 C 652.132812 226.703125 650.285156 228.019531 648.246094 229.632812 M 620.304688 227.613281 C 614.324219 228.359375 608.65625 231.523438 604.910156 236.207031 C 599.335938 243.171875 598.21875 252.5625 602.011719 260.566406 C 603.316406 263.320312 604.625 265.117188 607.226562 267.726562 C 610.464844 270.96875 611.640625 273.277344 612.070312 277.226562 C 612.214844 278.550781 612.460938 279.695312 612.675781 280.019531 C 612.972656 280.480469 613.050781 281.496094 613.144531 286.1875 C 613.246094 291.472656 613.285156 291.863281 613.746094 292.730469 C 614.261719 293.695312 615.273438 294.597656 616.253906 294.96875 C 616.691406 295.136719 616.859375 295.390625 616.960938 296.03125 C 617.144531 297.179688 618.085938 298.566406 619.144531 299.253906 C 620.175781 299.921875 622.148438 300.195312 624.425781 299.984375 C 627.199219 299.726562 628.792969 298.410156 629.328125 295.933594 C 629.445312 295.402344 629.695312 295.101562 630.292969 294.796875 C 631.335938 294.261719 632.1875 293.351562 632.683594 292.246094 C 633.027344 291.488281 633.089844 290.640625 633.125 286.035156 C 633.160156 281.453125 633.21875 280.625 633.539062 280.140625 C 633.757812 279.804688 633.988281 278.785156 634.101562 277.648438 C 634.53125 273.417969 635.5625 271.359375 639.148438 267.582031 C 642.054688 264.523438 642.691406 263.671875 643.949219 261.167969 C 645.714844 257.667969 646.414062 254.660156 646.410156 250.605469 C 646.402344 244.570312 644.304688 239.25 640.25 234.984375 C 636.234375 230.761719 631.238281 228.214844 625.730469 227.585938 C 623.554688 227.335938 622.472656 227.339844 620.304688 227.613281 M 620.269531 230.445312 C 615.363281 231.140625 610.382812 233.933594 607.328125 237.707031 C 601.59375 244.785156 601.050781 254.3125 605.949219 261.816406 C 606.589844 262.800781 608.074219 264.574219 609.242188 265.761719 C 610.410156 266.945312 611.679688 268.367188 612.058594 268.917969 C 613.578125 271.125 614.894531 274.761719 614.902344 276.765625 L 614.90625 277.589844 L 615.621094 277.152344 C 616.015625 276.914062 616.820312 276.652344 617.414062 276.574219 L 618.488281 276.429688 L 618.335938 274.316406 C 618.140625 271.597656 617.660156 267.847656 617.070312 264.429688 C 616.625 261.855469 616.574219 261.71875 616.027344 261.605469 C 613.367188 261.039062 611.46875 259.503906 610.921875 257.472656 C 610.078125 254.34375 613.269531 251.789062 615.78125 253.578125 C 616.542969 254.117188 617.585938 255.75 618.109375 257.21875 C 618.636719 258.683594 618.710938 258.742188 619.503906 258.332031 L 620.1875 257.980469 L 619.199219 256.636719 C 617.964844 254.960938 617.476562 253.363281 617.585938 251.382812 C 617.652344 250.234375 617.804688 249.695312 618.257812 249.011719 C 620.082031 246.253906 625.210938 246.261719 627.242188 249.019531 C 628.949219 251.339844 628.5625 253.867188 626.085938 256.574219 C 625.445312 257.277344 625.058594 257.871094 625.171875 257.980469 C 625.28125 258.082031 625.726562 258.3125 626.164062 258.492188 L 626.953125 258.816406 L 627.425781 257.347656 C 628.417969 254.273438 629.964844 252.699219 632 252.699219 C 633.359375 252.699219 634.433594 253.328125 635.023438 254.46875 C 635.324219 255.050781 635.402344 255.628906 635.351562 256.902344 C 635.292969 258.347656 635.199219 258.683594 634.652344 259.40625 C 633.761719 260.570312 632.316406 261.421875 630.667969 261.746094 C 628.976562 262.085938 629.203125 261.296875 628.457031 269.390625 C 627.761719 276.949219 627.757812 276.492188 628.511719 276.5 C 628.84375 276.503906 629.550781 276.699219 630.078125 276.941406 C 630.605469 277.179688 631.070312 277.375 631.109375 277.375 C 631.148438 277.375 631.25 276.90625 631.328125 276.328125 C 631.667969 273.890625 632.765625 271.015625 634.101562 269.074219 C 634.503906 268.488281 635.839844 266.964844 637.074219 265.683594 C 640.648438 261.976562 642.351562 258.953125 643.195312 254.824219 C 643.632812 252.675781 643.648438 249.074219 643.230469 246.9375 C 641.667969 238.933594 635.363281 232.445312 627.519531 230.769531 C 625.609375 230.359375 622.007812 230.199219 620.269531 230.445312 M 306.789062 236.28125 C 306.667969 236.324219 306.296875 236.417969 305.964844 236.492188 C 305.160156 236.667969 303.820312 237.875 303.449219 238.753906 C 303.011719 239.808594 303.078125 241.554688 303.597656 242.574219 C 304.734375 244.800781 308.050781 245.453125 310.085938 243.855469 C 311.351562 242.859375 311.925781 240.542969 311.308594 238.929688 C 311.011719 238.144531 310.089844 237.132812 309.324219 236.734375 C 308.738281 236.429688 307.15625 236.148438 306.789062 236.28125 M 343.503906 236.496094 C 340.433594 237.484375 339.644531 241.445312 342.066406 243.707031 C 342.859375 244.449219 343.691406 244.769531 344.816406 244.769531 C 347.761719 244.769531 349.859375 241.960938 348.949219 239.238281 C 348.175781 236.929688 345.828125 235.746094 343.503906 236.496094 M 383.238281 236.273438 C 383.117188 236.320312 382.75 236.417969 382.417969 236.492188 C 381.511719 236.691406 380.339844 237.835938 379.921875 238.9375 C 378.578125 242.453125 381.917969 245.796875 385.4375 244.453125 C 389.535156 242.886719 388.703125 236.863281 384.304688 236.300781 C 383.839844 236.238281 383.359375 236.230469 383.238281 236.273438 M 422.238281 236.273438 C 422.113281 236.320312 421.746094 236.417969 421.414062 236.492188 C 419.785156 236.851562 418.457031 239.019531 418.648438 241.015625 C 419.101562 245.71875 425.914062 246.085938 426.949219 241.457031 C 427.355469 239.648438 426.5625 237.746094 425.042969 236.894531 C 424.230469 236.433594 422.699219 236.097656 422.234375 236.273438 M 459.054688 236.449219 C 457.402344 236.886719 456.058594 238.789062 456.058594 240.699219 C 456.054688 241.667969 456.914062 243.207031 457.894531 243.984375 C 458.664062 244.597656 458.886719 244.660156 460.351562 244.660156 C 461.816406 244.660156 462.039062 244.597656 462.808594 243.984375 C 463.789062 243.207031 464.648438 241.667969 464.648438 240.699219 C 464.644531 238.660156 463.339844 236.894531 461.492188 236.429688 C 460.339844 236.140625 460.21875 236.140625 459.054688 236.449219 M 622.507812 249.726562 C 622.386719 249.765625 622.019531 249.855469 621.695312 249.925781 C 620.730469 250.140625 620.414062 250.628906 620.417969 251.890625 C 620.425781 253.246094 620.976562 254.546875 621.929688 255.441406 L 622.621094 256.09375 L 623.578125 255.152344 C 624.550781 254.199219 625.480469 252.628906 625.480469 251.949219 C 625.480469 251.269531 624.851562 250.34375 624.226562 250.101562 C 623.371094 249.773438 622.765625 249.640625 622.507812 249.726562 M 333.28125 255.246094 C 333.191406 255.339844 333.117188 263.042969 333.117188 272.363281 L 333.117188 289.304688 L 341.324219 289.21875 C 348.921875 289.140625 349.660156 289.097656 351.292969 288.652344 C 355.691406 287.453125 358.894531 284.9375 360.605469 281.339844 C 362.082031 278.242188 362.308594 277.011719 362.292969 272.199219 C 362.28125 268.625 362.207031 267.761719 361.804688 266.292969 C 360.144531 260.277344 356.246094 256.804688 349.75 255.550781 C 348.226562 255.257812 333.535156 254.984375 333.28125 255.246094 M 590.449219 256.347656 C 586.230469 257.339844 585.605469 257.640625 585.605469 258.671875 C 585.605469 259.253906 586.382812 259.972656 587.007812 259.972656 C 587.292969 259.972656 589.445312 259.535156 591.789062 259 C 596.273438 257.972656 596.621094 257.808594 596.621094 256.65625 C 596.621094 255.902344 595.984375 255.339844 595.171875 255.367188 C 594.816406 255.378906 592.691406 255.820312 590.449219 256.347656 M 631.339844 255.855469 C 630.84375 256.351562 629.773438 258.828125 629.972656 259.027344 C 630.121094 259.175781 631.945312 258.324219 632.234375 257.96875 C 632.375 257.796875 632.511719 257.460938 632.535156 257.214844 C 632.710938 255.5625 632.207031 254.988281 631.339844 255.855469 M 613.714844 255.945312 C 613.371094 256.289062 613.664062 257.019531 614.472656 257.824219 C 614.957031 258.3125 615.410156 258.65625 615.480469 258.589844 C 615.546875 258.523438 615.339844 257.925781 615.027344 257.257812 C 614.488281 256.117188 614.015625 255.648438 613.714844 255.945312 M 650.039062 256.546875 C 649.152344 257.429688 649.425781 258.453125 650.652344 258.84375 C 651.519531 259.117188 659.058594 260.851562 659.394531 260.851562 C 659.863281 260.851562 660.511719 259.960938 660.511719 259.316406 C 660.511719 258.875 660.347656 258.550781 660.011719 258.332031 C 659.644531 258.089844 651.273438 256.003906 650.671875 256.003906 C 650.621094 256.003906 650.335938 256.25 650.039062 256.546875 M 399.378906 258.050781 L 396.570312 258.5 L 396.570312 263.496094 L 392.601562 263.496094 L 392.601562 268.785156 L 396.542969 268.785156 L 396.609375 276.441406 L 396.679688 284.097656 L 397.25 285.308594 C 398.800781 288.605469 401.175781 289.847656 405.574219 289.664062 C 407.921875 289.566406 409.695312 289.09375 410.769531 288.273438 C 411.195312 287.949219 411.191406 287.914062 410.492188 285.800781 C 409.511719 282.832031 409.617188 282.933594 408.226562 283.53125 C 407.328125 283.917969 406.773438 284.011719 405.785156 283.941406 C 404.292969 283.832031 403.527344 283.265625 403.179688 282.019531 C 403.058594 281.582031 402.960938 278.449219 402.960938 275.007812 L 402.957031 268.785156 L 410.230469 268.785156 L 410.230469 263.496094 L 402.957031 263.496094 L 402.957031 260.523438 C 402.957031 257.824219 402.921875 257.550781 402.574219 257.574219 C 402.359375 257.589844 400.921875 257.804688 399.378906 258.050781 M 622.066406 260.109375 C 621.824219 260.296875 621.121094 260.675781 620.507812 260.953125 L 619.386719 261.457031 L 619.785156 263.414062 C 620.269531 265.800781 621.007812 271.453125 621.210938 274.355469 L 621.359375 276.496094 L 624.957031 276.496094 L 625.566406 269.765625 C 625.898438 266.066406 626.21875 262.71875 626.273438 262.332031 C 626.375 261.636719 626.34375 261.605469 624.550781 260.75 C 623.90625 260.441406 623.261719 260.132812 622.617188 259.820312 C 622.558594 259.789062 622.308594 259.917969 622.066406 260.109375 M 339.945312 272.164062 L 339.945312 283.546875 L 343.320312 283.546875 C 347.074219 283.546875 348.703125 283.316406 350.429688 282.554688 C 353.832031 281.050781 355.359375 277.84375 355.367188 272.179688 C 355.375 265.902344 353.355469 262.636719 348.6875 261.375 C 348.058594 261.207031 345.835938 261.003906 343.746094 260.925781 L 339.945312 260.78125 Z M 376.410156 263.210938 C 375.003906 263.40625 373.085938 263.996094 371.777344 264.632812 C 370.324219 265.34375 367.980469 267.066406 367.789062 267.566406 C 367.683594 267.84375 370.203125 271.867188 370.480469 271.867188 C 370.546875 271.867188 371.15625 271.414062 371.835938 270.859375 C 373.34375 269.632812 374.355469 269.101562 376.007812 268.671875 C 378.253906 268.085938 380.285156 268.3125 381.292969 269.257812 C 381.679688 269.621094 381.808594 269.980469 381.808594 270.710938 C 381.808594 271.242188 381.707031 271.867188 381.582031 272.101562 C 381.195312 272.820312 379.765625 273.375 376.8125 273.960938 C 372.3125 274.851562 370.46875 275.578125 368.945312 277.0625 C 367.550781 278.417969 367.15625 279.539062 367.15625 282.117188 C 367.15625 284.167969 367.207031 284.429688 367.878906 285.796875 C 368.667969 287.394531 369.625 288.304688 371.378906 289.113281 C 372.292969 289.535156 372.820312 289.605469 375.089844 289.605469 C 377.53125 289.605469 377.824219 289.558594 378.980469 288.992188 C 380.109375 288.4375 381.105469 287.519531 382.035156 286.179688 C 382.371094 285.699219 382.382812 285.710938 383.136719 286.984375 C 384.101562 288.617188 385.167969 289.25 387.253906 289.421875 C 388.667969 289.542969 390.832031 289.253906 391.457031 288.863281 C 391.6875 288.71875 391.6875 288.265625 391.457031 286.390625 L 391.171875 284.097656 L 389.96875 284.097656 C 388.175781 284.09375 388.203125 284.210938 388.199219 276.351562 C 388.195312 270.328125 388.15625 269.578125 387.753906 268.277344 C 386.90625 265.527344 384.613281 263.773438 381.238281 263.285156 C 379.730469 263.066406 377.6875 263.035156 376.410156 263.210938 M 422.238281 263.378906 C 420.488281 263.699219 418.496094 264.460938 417.105469 265.339844 C 415.976562 266.050781 414.414062 267.433594 414.414062 267.714844 C 414.414062 267.953125 417.019531 271.867188 417.179688 271.867188 C 417.238281 271.867188 417.832031 271.421875 418.503906 270.875 C 419.992188 269.664062 421.0625 269.101562 422.714844 268.671875 C 426.101562 267.789062 428.515625 268.679688 428.515625 270.8125 C 428.515625 272.640625 427.71875 273.101562 422.855469 274.09375 C 419.5 274.78125 417.109375 275.691406 415.835938 276.769531 C 415.46875 277.082031 414.878906 277.867188 414.527344 278.515625 C 413.996094 279.488281 413.871094 280.015625 413.792969 281.582031 C 413.546875 286.757812 416.464844 289.714844 421.824219 289.714844 C 424.886719 289.714844 427.058594 288.707031 428.257812 286.734375 C 428.582031 286.199219 428.921875 285.757812 429.015625 285.753906 C 429.109375 285.75 429.289062 286.019531 429.417969 286.351562 C 429.800781 287.363281 430.695312 288.371094 431.667969 288.890625 C 432.449219 289.308594 432.925781 289.382812 434.792969 289.378906 C 436.410156 289.375 437.175781 289.273438 437.667969 289.011719 L 438.339844 288.648438 L 438.109375 286.371094 L 437.878906 284.097656 L 436.761719 284.167969 C 434.96875 284.285156 435.03125 284.554688 434.90625 276.1875 C 434.792969 268.898438 434.792969 268.894531 434.222656 267.671875 C 433.90625 267 433.34375 266.101562 432.96875 265.675781 C 431.074219 263.519531 426.644531 262.570312 422.238281 263.378906 M 662.351562 263.949219 C 657.398438 264.816406 653.699219 268.617188 652.976562 273.574219 C 652.550781 276.496094 653.265625 279.238281 655.128906 281.832031 C 655.789062 282.75 655.859375 282.957031 655.617188 283.289062 C 655.460938 283.503906 648.960938 291.863281 641.171875 301.867188 L 627.007812 320.054688 L 625.75 319.761719 C 622.519531 319 618.597656 319.953125 616.164062 322.089844 L 615.457031 322.710938 L 603.972656 313.59375 L 592.484375 304.476562 L 593.050781 303.097656 C 593.863281 301.132812 593.992188 297.847656 593.347656 295.71875 C 591.828125 290.714844 587.125 287.453125 581.90625 287.78125 C 575.546875 288.183594 570.925781 293.375 571.359375 299.628906 C 571.429688 300.660156 571.515625 301.6875 571.550781 301.914062 C 571.597656 302.21875 568.808594 304.820312 561.148438 311.625 L 550.6875 320.917969 L 549.679688 319.886719 C 547.601562 317.75 545.03125 316.726562 541.761719 316.726562 C 538.679688 316.726562 536.421875 317.558594 534.125 319.542969 C 530.492188 322.6875 529.449219 328.804688 531.792969 333.210938 C 532.761719 335.023438 534.984375 337.101562 537.023438 338.09375 L 538.785156 338.957031 L 544.734375 338.957031 L 546.394531 338.128906 C 548.410156 337.117188 550.03125 335.738281 551.121094 334.097656 C 552.339844 332.261719 552.824219 330.695312 552.976562 328.128906 L 553.105469 325.890625 L 563.785156 316.402344 L 574.460938 306.914062 L 575.128906 307.453125 C 577.125 309.058594 579.398438 309.96875 581.867188 310.140625 C 583.859375 310.285156 585.421875 309.980469 587.40625 309.066406 L 588.878906 308.390625 L 600.183594 317.367188 C 606.402344 322.308594 611.722656 326.570312 612.007812 326.839844 C 612.511719 327.316406 612.515625 327.359375 612.242188 329 C 611.425781 333.851562 613.960938 338.585938 618.613281 340.890625 C 620.367188 341.757812 620.605469 341.816406 622.726562 341.894531 C 624.398438 341.957031 625.320312 341.878906 626.277344 341.605469 C 631.785156 340.015625 635.339844 334.734375 634.554688 329.304688 C 634.277344 327.371094 633.445312 325.328125 632.355469 323.902344 C 631.953125 323.375 631.65625 322.863281 631.691406 322.761719 C 631.730469 322.660156 638.15625 314.371094 645.972656 304.347656 C 653.785156 294.324219 660.230469 286.050781 660.292969 285.964844 C 660.351562 285.882812 661.292969 285.960938 662.386719 286.144531 C 664.917969 286.570312 666.769531 286.296875 669.082031 285.167969 C 674.457031 282.539062 676.886719 276.023438 674.5 270.628906 C 672.449219 265.996094 667.183594 263.097656 662.351562 263.949219 M 144.28125 269.554688 C 143.050781 269.949219 141.355469 271.398438 140.761719 272.5625 C 140.519531 273.035156 139.128906 276.863281 137.667969 281.070312 C 127.820312 309.441406 125.796875 315.390625 125.796875 315.953125 C 125.796875 317.300781 126.53125 317.699219 133.066406 319.898438 C 136.398438 321.023438 139.347656 322.023438 139.621094 322.125 L 140.113281 322.308594 L 139.347656 323.707031 C 137.121094 327.753906 136.933594 331.257812 138.746094 334.734375 C 140.292969 337.703125 143.074219 339.808594 146.332031 340.480469 C 148.398438 340.902344 149.515625 340.910156 151.226562 340.5 C 155.585938 339.460938 158.394531 336.34375 159.464844 331.363281 C 159.683594 330.34375 159.964844 329.476562 160.089844 329.433594 C 160.304688 329.363281 170.476562 332.777344 170.691406 332.996094 C 170.75 333.050781 169.632812 336.464844 168.210938 340.574219 C 165.417969 348.652344 165.359375 348.96875 166.492188 349.859375 C 167.195312 350.414062 167.46875 350.410156 169.683594 349.835938 C 171.875 349.269531 172.929688 349.375 174.746094 350.339844 C 176.335938 351.1875 177.414062 352.394531 178.011719 353.984375 C 179.199219 357.15625 177.96875 360.65625 175.058594 362.398438 C 174.019531 363.019531 173.523438 363.167969 172.191406 363.25 C 169.390625 363.429688 167.21875 362.363281 165.765625 360.089844 C 164.917969 358.765625 164.203125 358.351562 163.121094 358.554688 C 162.054688 358.753906 161.621094 359.445312 160.546875 362.640625 C 159.996094 364.277344 158.695312 368.074219 157.652344 371.082031 C 156.613281 374.089844 155.757812 376.898438 155.757812 377.316406 C 155.757812 377.84375 155.925781 378.238281 156.292969 378.578125 C 156.746094 379 174.300781 385.199219 197.289062 393.058594 C 199.515625 393.820312 200.128906 393.949219 201.171875 393.859375 C 203.535156 393.65625 205.378906 392.46875 206.304688 390.554688 C 206.609375 389.925781 209.429688 381.972656 212.570312 372.886719 C 215.710938 363.796875 222.203125 345.007812 227 331.132812 C 231.796875 317.257812 235.785156 305.492188 235.863281 304.988281 C 236.171875 303.007812 234.953125 300.335938 233.257812 299.261719 C 231.871094 298.386719 147.96875 269.425781 146.507812 269.316406 C 145.792969 269.265625 144.875 269.363281 144.28125 269.554688 M 661.46875 269.875 C 659.339844 270.949219 658.257812 272.703125 658.253906 275.066406 C 658.253906 278.445312 660.785156 280.972656 664.171875 280.980469 C 667.503906 280.988281 670.046875 278.410156 670.027344 275.042969 C 670.015625 273.355469 669.476562 272.03125 668.347656 270.933594 C 667.179688 269.796875 666.140625 269.363281 664.367188 269.273438 C 662.992188 269.199219 662.679688 269.265625 661.46875 269.875 M 145.644531 273.609375 C 145.351562 273.6875 144.933594 273.996094 144.714844 274.296875 C 144.347656 274.800781 130.550781 314.371094 130.695312 314.515625 C 130.726562 314.550781 133.976562 315.675781 137.914062 317.019531 C 141.851562 318.363281 145.292969 319.578125 145.558594 319.714844 C 145.828125 319.851562 146.203125 320.296875 146.398438 320.710938 C 146.957031 321.878906 146.546875 322.789062 144.988281 323.847656 C 143.582031 324.804688 142.789062 325.742188 142.277344 327.058594 C 141.714844 328.519531 141.621094 329.804688 141.984375 331.1875 C 142.582031 333.472656 143.804688 334.910156 146.023438 335.929688 C 147.019531 336.386719 147.453125 336.453125 148.890625 336.386719 C 153.695312 336.15625 156.628906 331.878906 155.113281 327.316406 C 154.652344 325.9375 154.644531 325.828125 154.992188 325.101562 C 155.207031 324.648438 155.65625 324.195312 156.097656 323.984375 C 156.84375 323.628906 156.863281 323.636719 164.246094 326.171875 C 168.316406 327.566406 171.769531 328.710938 171.925781 328.710938 C 172.09375 328.710938 172.925781 326.628906 174.011719 323.476562 C 175.003906 320.601562 175.8125 318.171875 175.8125 318.082031 C 175.808594 317.988281 175.488281 317.914062 175.09375 317.914062 C 173.851562 317.910156 171.058594 317.132812 169.941406 316.480469 C 167.496094 315.046875 165.527344 312.453125 164.652344 309.511719 C 164.253906 308.167969 164.214844 305.371094 164.574219 304.011719 C 165.972656 298.757812 171.703125 294.847656 176.808594 295.664062 C 178.511719 295.9375 179.640625 296.359375 181.386719 297.378906 C 182.09375 297.789062 182.703125 298.09375 182.746094 298.050781 C 182.882812 297.90625 186.382812 287.691406 186.382812 287.4375 C 186.378906 287.296875 178.722656 284.527344 169.363281 281.285156 C 144.78125 272.773438 146.582031 273.355469 145.644531 273.609375 M 380.855469 277.070312 C 380.515625 277.253906 379.273438 277.609375 378.101562 277.859375 C 374.480469 278.632812 373.578125 279.402344 373.566406 281.722656 C 373.558594 283.710938 374.890625 284.871094 377.179688 284.863281 C 380.390625 284.851562 382.027344 282.71875 382.027344 278.546875 C 382.027344 276.558594 381.957031 276.472656 380.855469 277.070312 M 427.578125 277.0625 C 427.242188 277.242188 425.867188 277.636719 424.515625 277.933594 C 421.730469 278.550781 420.773438 279.113281 420.355469 280.375 C 419.808594 282.027344 420.453125 283.722656 421.921875 284.492188 C 423.125 285.125 425.367188 284.929688 426.5625 284.089844 C 427.996094 283.082031 428.539062 281.773438 428.683594 279 C 428.808594 276.5 428.765625 276.417969 427.578125 277.0625 M 616.652344 280.003906 C 616.128906 280.527344 616.007812 280.835938 616.007812 281.65625 C 616.007812 282.210938 616.09375 282.664062 616.199219 282.664062 C 616.457031 282.664062 629.726562 280.6875 629.960938 280.617188 C 630.0625 280.582031 629.875 280.289062 629.546875 279.957031 L 628.945312 279.359375 L 617.296875 279.359375 Z M 622.671875 284.597656 L 616.007812 285.605469 L 616.007812 286.976562 C 616.007812 288.171875 616.058594 288.339844 616.394531 288.269531 C 616.605469 288.222656 619.554688 287.78125 622.949219 287.292969 C 626.339844 286.800781 629.390625 286.34375 629.722656 286.277344 C 630.300781 286.160156 630.328125 286.097656 630.328125 284.847656 C 630.328125 283.636719 630.292969 283.546875 629.832031 283.566406 C 629.558594 283.582031 626.339844 284.042969 622.671875 284.597656 M 190.25 289.671875 C 184.96875 305.171875 185.136719 304.796875 183.496094 304.796875 C 182.523438 304.796875 182.375 304.667969 180.617188 302.304688 C 178.273438 299.164062 173.015625 299.101562 170.308594 302.1875 C 169.164062 303.492188 168.691406 304.792969 168.671875 306.6875 C 168.65625 308.136719 168.746094 308.539062 169.367188 309.796875 C 170.925781 312.964844 174.789062 314.46875 177.984375 313.152344 C 179.496094 312.53125 180.660156 312.9375 181.222656 314.289062 C 181.515625 314.984375 181.421875 315.304688 178.890625 322.5625 C 177.441406 326.714844 176.296875 330.152344 176.34375 330.203125 C 176.457031 330.3125 186.875 333.984375 187.101562 333.992188 C 187.191406 333.996094 187.265625 333.574219 187.265625 333.054688 C 187.265625 329.511719 189.664062 325.644531 192.9375 323.90625 C 197.445312 321.515625 202.121094 321.980469 205.601562 325.164062 C 209.976562 329.171875 210.753906 334.800781 207.613281 339.777344 C 207.304688 340.261719 207.140625 340.734375 207.242188 340.824219 C 207.617188 341.167969 217.746094 344.582031 217.890625 344.417969 C 218.304688 343.9375 231.558594 304.9375 231.554688 304.214844 C 231.546875 303.242188 230.988281 302.726562 229.203125 302.058594 C 228.542969 301.8125 219.847656 298.789062 209.890625 295.347656 C 199.929688 291.90625 191.515625 288.988281 191.191406 288.863281 C 190.625 288.644531 190.589844 288.675781 190.25 289.671875 M 623.242188 290.125 C 619.527344 290.6875 616.429688 291.203125 616.359375 291.273438 C 616.289062 291.34375 616.484375 291.640625 616.796875 291.933594 C 617.359375 292.464844 617.398438 292.46875 622.726562 292.535156 C 628.867188 292.609375 629.445312 292.5 630.007812 291.160156 C 630.34375 290.347656 630.445312 289.035156 630.164062 289.078125 C 630.074219 289.09375 626.957031 289.5625 623.242188 290.125 M 580.675781 293.339844 C 576.484375 294.835938 575.25 300.035156 578.351562 303.136719 C 580.726562 305.511719 584.316406 305.496094 586.675781 303.097656 C 588.390625 301.355469 588.898438 299.210938 588.132812 296.957031 C 587.128906 294.019531 583.589844 292.300781 580.675781 293.339844 M 619.753906 295.742188 C 619.753906 295.90625 620.015625 296.304688 620.335938 296.625 C 620.882812 297.171875 621.035156 297.203125 623.058594 297.203125 C 625.355469 297.203125 626.164062 296.890625 626.425781 295.886719 C 626.539062 295.453125 626.445312 295.441406 623.148438 295.441406 C 620.429688 295.441406 619.753906 295.503906 619.753906 295.742188 M 652.03125 317.558594 C 651.667969 317.722656 651.171875 318.078125 650.929688 318.347656 C 650.492188 318.839844 650.488281 319.234375 650.378906 369.4375 L 650.269531 420.035156 L 643.824219 420.089844 L 637.378906 420.148438 L 637.378906 395.792969 C 637.378906 369.347656 637.433594 370.503906 636.164062 369.507812 C 635.558594 369.03125 635.539062 369.027344 623.386719 369.027344 C 611.238281 369.027344 611.21875 369.03125 610.613281 369.507812 C 609.34375 370.503906 609.398438 369.347656 609.398438 395.792969 L 609.398438 420.148438 L 602.953125 420.089844 L 596.507812 420.035156 L 596.398438 377.988281 L 596.289062 335.945312 L 595.570312 335.300781 L 594.851562 334.660156 L 570.285156 334.660156 L 569.667969 335.230469 C 569.332031 335.546875 568.960938 336.046875 568.847656 336.347656 C 568.71875 336.679688 568.640625 353.132812 568.640625 378.515625 L 568.640625 420.144531 L 555.640625 420.144531 L 555.636719 391.226562 C 555.632812 368.714844 555.574219 362.191406 555.363281 361.78125 C 555.210938 361.488281 554.808594 361.042969 554.46875 360.789062 C 553.855469 360.335938 553.625 360.324219 542.238281 360.257812 C 534.441406 360.214844 530.367188 360.269531 529.824219 360.429688 C 529.378906 360.558594 528.757812 360.96875 528.445312 361.339844 L 527.878906 362.011719 L 527.878906 420.144531 L 516.726562 420.144531 L 516.03125 420.824219 C 514.824219 422.003906 514.878906 423.777344 516.152344 424.777344 C 516.699219 425.207031 517.519531 425.210938 601.882812 425.203125 C 668.496094 425.199219 687.136719 425.136719 687.402344 424.929688 C 688.105469 424.375 688.492188 423.546875 688.492188 422.605469 C 688.492188 421.804688 688.367188 421.515625 687.742188 420.890625 L 686.996094 420.144531 L 678.136719 420.144531 L 678.136719 369.902344 C 678.136719 315.21875 678.21875 318.6875 676.902344 317.792969 C 676.292969 317.382812 675.765625 317.363281 664.476562 317.3125 C 655.007812 317.273438 652.5625 317.320312 652.03125 317.558594 M 540.394531 322.105469 C 539.210938 322.402344 537.542969 323.511719 536.945312 324.398438 C 534.898438 327.441406 535.734375 331.226562 538.855469 333.0625 C 539.761719 333.59375 540.113281 333.667969 541.761719 333.667969 C 543.40625 333.667969 543.757812 333.59375 544.664062 333.0625 C 547.992188 331.105469 548.695312 326.902344 546.179688 324.039062 C 544.738281 322.402344 542.375 321.613281 540.394531 322.105469 M 655.664062 371.230469 L 655.664062 419.921875 L 672.851562 419.921875 L 672.796875 371.289062 L 672.742188 322.652344 L 655.664062 322.535156 Z M 621.847656 324.996094 C 619.070312 325.644531 617.003906 328.910156 617.546875 331.785156 C 617.820312 333.210938 618.238281 334.011719 619.21875 334.960938 C 620.332031 336.042969 621.40625 336.496094 623.097656 336.601562 C 626.523438 336.808594 629.253906 334.246094 629.253906 330.820312 C 629.253906 329.273438 628.949219 328.390625 627.949219 327.027344 C 626.769531 325.425781 623.984375 324.5 621.847656 324.996094 M 195.765625 327.273438 C 194.1875 327.921875 192.929688 329.105469 192.238281 330.582031 C 191.425781 332.332031 191.355469 333.472656 191.917969 335.773438 C 192.375 337.640625 192.386719 337.824219 192.058594 338.367188 C 191.863281 338.695312 191.339844 339.082031 190.875 339.238281 C 189.859375 339.585938 189.5 339.484375 181.007812 336.5 C 177.75 335.351562 175.007812 334.496094 174.914062 334.59375 C 174.785156 334.726562 171.183594 344.917969 171.183594 345.152344 C 171.183594 345.179688 171.75 345.316406 172.449219 345.453125 C 177.039062 346.359375 180.011719 348.320312 181.488281 351.414062 C 182.363281 353.246094 182.628906 354.414062 182.628906 356.472656 C 182.632812 359.042969 181.96875 361.0625 180.464844 363.070312 C 177.046875 367.613281 171.84375 368.722656 166.417969 366.054688 C 165.339844 365.527344 164.394531 365.164062 164.308594 365.246094 C 164.003906 365.542969 160.617188 375.738281 160.773438 375.882812 C 160.9375 376.035156 198.859375 389.1875 200.234375 389.566406 C 201.3125 389.867188 202.136719 389.449219 202.660156 388.339844 C 203.109375 387.382812 216.347656 349.171875 216.347656 348.832031 C 216.347656 348.722656 215.429688 348.324219 214.308594 347.945312 C 204.578125 344.660156 201.226562 343.417969 200.882812 342.964844 C 199.898438 341.691406 200.324219 340.4375 202.128906 339.304688 C 203.632812 338.359375 204.570312 337.066406 205.019531 335.320312 C 206.425781 329.828125 201.007812 325.117188 195.765625 327.273438 M 115.894531 328.101562 C 115.484375 328.3125 103.273438 342.203125 98.90625 347.421875 L 98.277344 348.171875 L 97.355469 347.535156 C 96.042969 346.625 94.308594 346.566406 90.515625 347.300781 C 86.304688 348.117188 75.308594 350.683594 75.121094 350.894531 C 74.816406 351.238281 64.851562 362.996094 63.207031 364.953125 C 60.4375 368.25 57.734375 371.921875 57.019531 373.371094 C 56.390625 374.644531 56.351562 374.847656 56.5 376.238281 C 56.875 379.839844 58.304688 386.621094 61.984375 402.296875 C 63.25 407.691406 64.25 412.136719 64.207031 412.183594 C 64.164062 412.226562 62.671875 412.597656 60.886719 413.007812 C 59.105469 413.414062 57.613281 413.785156 57.570312 413.828125 C 57.53125 413.867188 57.472656 416.324219 57.441406 419.289062 C 57.367188 426.488281 57.132812 426.148438 62.394531 426.519531 C 67.6875 426.894531 84.664062 427.246094 89.378906 427.082031 C 94.554688 426.898438 95.09375 426.746094 95.582031 425.320312 C 95.789062 424.71875 95.917969 422.808594 95.996094 419.261719 L 96.105469 414.085938 L 94.289062 413.265625 L 92.46875 412.441406 L 92.625 411.5 C 93.382812 406.859375 93.667969 404.171875 93.832031 400.203125 C 93.957031 397.054688 94.125 395.292969 94.347656 394.691406 C 94.902344 393.195312 96.339844 390.472656 98.703125 386.433594 C 103.800781 377.726562 104.78125 375.117188 103.992188 372.359375 C 103.792969 371.671875 103.804688 371.640625 104.15625 371.945312 C 111.792969 378.582031 119.644531 385.210938 120.050781 385.367188 C 120.34375 385.480469 120.859375 385.511719 121.199219 385.4375 C 121.789062 385.308594 122.363281 384.703125 127.527344 378.785156 L 128.914062 377.191406 L 130.128906 378.503906 C 132.332031 380.882812 135.140625 381.832031 138.332031 381.273438 C 141.476562 380.722656 143.75 379.070312 144.984375 376.433594 C 146.128906 373.992188 146.203125 370.59375 145.164062 368.433594 C 144.554688 367.164062 142.835938 365.289062 141.515625 364.457031 C 140.988281 364.125 140.558594 363.800781 140.558594 363.742188 C 140.558594 363.679688 142.007812 361.945312 143.777344 359.886719 C 145.550781 357.824219 147.140625 355.808594 147.3125 355.40625 C 147.886719 354.074219 147.792969 353.972656 139.894531 347.230469 C 136.058594 343.953125 135.378906 343.550781 134.289062 343.910156 C 133.503906 344.167969 133.140625 344.8125 132.535156 347.011719 C 132.070312 348.695312 131.375 349.644531 130.085938 350.351562 C 127.421875 351.8125 124.027344 350.5 123.183594 347.675781 C 122.269531 344.625 124.035156 341.742188 127.183594 341.152344 C 128.972656 340.816406 129.570312 339.589844 128.714844 338.023438 C 128.398438 337.441406 120.570312 330.425781 118.195312 328.59375 C 117.328125 327.925781 116.558594 327.761719 115.894531 328.101562 M 106.402344 345.246094 C 100.648438 351.917969 95.851562 357.605469 95.742188 357.886719 C 95.632812 358.171875 95.605469 358.554688 95.675781 358.746094 C 95.804688 359.082031 99.589844 362.445312 104.804688 366.859375 C 106.285156 368.113281 110.339844 371.605469 113.8125 374.621094 C 117.285156 377.636719 120.257812 380.117188 120.414062 380.128906 C 120.664062 380.152344 125.867188 374.316406 127.46875 372.21875 C 129.066406 370.121094 131.390625 370.5 131.847656 372.925781 C 132.195312 374.777344 133.558594 376.433594 135.171875 376.964844 C 136.40625 377.371094 138.421875 377.121094 139.46875 376.425781 C 140.847656 375.515625 141.523438 374.300781 141.621094 372.558594 C 141.71875 370.824219 141.273438 369.730469 140.027344 368.632812 C 139.3125 368.007812 138.070312 367.496094 137.253906 367.484375 C 137.070312 367.484375 136.410156 367.242188 135.78125 366.953125 C 134.492188 366.351562 134.320312 365.945312 134.734375 364.480469 C 134.925781 363.800781 135.9375 362.472656 138.65625 359.328125 C 140.671875 356.996094 142.3125 355.027344 142.304688 354.953125 C 142.289062 354.796875 136.707031 350.007812 136.433594 349.917969 C 136.335938 349.886719 136.066406 350.203125 135.839844 350.625 C 135.179688 351.847656 133.253906 353.667969 131.933594 354.3125 C 128.703125 355.886719 124.5 355.417969 121.796875 353.175781 C 119.882812 351.589844 118.660156 348.6875 118.671875 345.753906 C 118.683594 343.34375 119.476562 341.597656 121.480469 339.59375 L 122.898438 338.175781 L 119.964844 335.644531 C 118.351562 334.253906 116.992188 333.117188 116.945312 333.117188 C 116.898438 333.117188 112.152344 338.574219 106.402344 345.246094 M 573.925781 379.933594 L 573.925781 419.921875 L 591.113281 419.921875 L 591.113281 339.945312 L 573.925781 339.945312 Z M 87.902344 351.734375 C 83.835938 352.609375 80.234375 353.617188 78.613281 354.335938 C 76.976562 355.0625 75.125 357.085938 64.738281 369.46875 L 60.210938 374.867188 L 64.601562 393.703125 C 67.015625 404.066406 69.007812 412.558594 69.027344 412.578125 C 69.046875 412.597656 73.332031 412.6875 78.550781 412.777344 L 88.035156 412.9375 L 88.515625 410.757812 C 89.539062 406.089844 90.007812 401.152344 89.785156 397.339844 C 89.570312 393.636719 89.738281 393.199219 94.390625 385.441406 C 98.164062 379.148438 98.785156 378.023438 99.457031 376.234375 C 100.449219 373.601562 100.03125 372.042969 98.105469 371.191406 C 95.613281 370.089844 93.832031 371.789062 88.109375 380.71875 C 86.609375 383.054688 84.851562 385.542969 84.199219 386.25 C 83.136719 387.394531 82.824219 387.589844 81.214844 388.101562 C 80.226562 388.417969 78.660156 388.730469 77.734375 388.796875 C 76.265625 388.902344 75.90625 388.851562 74.988281 388.40625 C 73.367188 387.621094 72.339844 386.570312 71.808594 385.152344 C 71.363281 383.960938 69.621094 376.957031 69.617188 376.335938 C 69.617188 376.175781 71.800781 372.445312 74.472656 368.050781 L 79.332031 360.0625 L 80.699219 359.6875 C 90.355469 357.046875 91.609375 356.648438 91.730469 356.175781 C 91.796875 355.914062 92.6875 354.707031 93.710938 353.496094 C 95.226562 351.703125 95.507812 351.265625 95.207031 351.144531 C 94.304688 350.773438 91.203125 351.027344 87.902344 351.734375 M 86.832031 362.542969 C 84.121094 363.1875 81.878906 363.746094 81.84375 363.78125 C 81.539062 364.128906 75.441406 374.101562 74.875 375.183594 C 74.234375 376.40625 74.128906 376.816406 74.128906 378.15625 C 74.128906 380.089844 75.109375 383.273438 75.992188 384.222656 C 76.722656 385 77.941406 385.277344 78.898438 384.878906 C 80.273438 384.308594 83.046875 380.960938 85.917969 376.410156 C 87.886719 373.28125 90.46875 369.78125 91.726562 368.535156 L 93.015625 367.257812 L 92.863281 366.214844 C 92.722656 365.277344 91.878906 361.46875 91.792969 361.398438 C 91.773438 361.382812 89.539062 361.898438 86.832031 362.542969 M 533.167969 392.714844 L 533.167969 419.921875 L 550.351562 419.921875 L 550.351562 365.503906 L 533.167969 365.503906 Z M 614.90625 397.121094 L 614.90625 419.921875 L 631.871094 419.921875 L 631.871094 374.316406 L 614.90625 374.316406 Z M 148.621094 435.34375 C 147.707031 435.632812 146.535156 436.847656 146.25 437.796875 C 145.375 440.71875 147.957031 443.332031 151.019531 442.628906 C 152.894531 442.199219 153.996094 440.863281 153.996094 439.015625 C 153.996094 436.828125 152.582031 435.328125 150.402344 435.203125 C 149.773438 435.167969 148.972656 435.230469 148.621094 435.34375 M 186.074219 435.34375 C 185.164062 435.632812 183.992188 436.847656 183.707031 437.796875 C 182.832031 440.71875 185.410156 443.332031 188.476562 442.628906 C 190.351562 442.199219 191.449219 440.863281 191.449219 439.015625 C 191.453125 436.828125 190.039062 435.328125 187.859375 435.203125 C 187.230469 435.167969 186.425781 435.230469 186.074219 435.34375 M 56.835938 454.394531 L 56.835938 471.511719 L 65.042969 471.425781 C 72.640625 471.347656 73.378906 471.304688 75.011719 470.859375 C 82.734375 468.75 86.460938 462.832031 86.0625 453.300781 C 85.695312 444.429688 81.671875 439.417969 73.578125 437.761719 C 72.894531 437.621094 68.988281 437.460938 64.601562 437.394531 L 56.835938 437.277344 Z M 527 454.382812 L 527 471.476562 L 533.828125 471.476562 L 533.828125 458.980469 L 538.289062 458.855469 C 541.261719 458.773438 543.144531 458.621094 543.933594 458.398438 C 548.261719 457.175781 550.871094 454.257812 551.5 449.925781 C 552.203125 445.125 550.125 440.628906 546.359375 438.789062 C 543.820312 437.550781 543.375 437.496094 534.875 437.386719 L 527 437.285156 Z M 586.539062 440.261719 L 583.839844 440.71875 L 583.839844 445.699219 L 579.875 445.699219 L 579.875 450.988281 L 583.839844 450.988281 L 583.84375 458.09375 C 583.847656 465.390625 583.949219 466.464844 584.789062 468.089844 C 586.140625 470.699219 588.546875 471.917969 592.339844 471.917969 C 594.484375 471.917969 596.535156 471.4375 597.855469 470.621094 L 598.542969 470.199219 L 597.746094 467.878906 C 597.304688 466.605469 596.875 465.492188 596.789062 465.40625 C 596.703125 465.320312 596.117188 465.472656 595.484375 465.742188 C 594.597656 466.125 594.042969 466.214844 593.058594 466.144531 C 591.566406 466.035156 590.796875 465.472656 590.453125 464.222656 C 590.332031 463.789062 590.230469 460.652344 590.230469 457.210938 L 590.230469 450.988281 L 597.5 450.988281 L 597.5 445.699219 L 590.230469 445.699219 L 590.230469 442.726562 C 590.230469 439.25 590.695312 439.558594 586.539062 440.261719 M 606.535156 440.273438 L 603.78125 440.742188 L 603.71875 443.214844 L 603.65625 445.683594 L 601.734375 445.746094 L 599.8125 445.8125 L 599.753906 448.398438 L 599.691406 450.988281 L 603.671875 450.988281 L 603.671875 457.679688 C 603.671875 461.355469 603.769531 464.894531 603.890625 465.539062 C 604.402344 468.226562 605.828125 470.167969 608.078125 471.234375 C 609.1875 471.761719 609.523438 471.808594 612.152344 471.808594 C 615.246094 471.808594 616.644531 471.496094 617.835938 470.539062 L 618.453125 470.046875 L 617.617188 467.679688 C 617.15625 466.375 616.675781 465.308594 616.550781 465.308594 C 616.425781 465.308594 615.933594 465.507812 615.457031 465.75 C 614.402344 466.289062 612.515625 466.332031 611.574219 465.84375 C 610.363281 465.21875 610.28125 464.675781 610.28125 457.496094 L 610.28125 450.988281 L 617.550781 450.988281 L 617.550781 445.699219 L 610.28125 445.699219 L 610.28125 442.726562 C 610.28125 439.246094 610.746094 439.550781 606.535156 440.273438 M 533.828125 448.101562 L 533.828125 453.410156 L 537.1875 453.410156 C 540.773438 453.410156 541.707031 453.253906 542.886719 452.472656 C 544.34375 451.503906 545.101562 449 544.628906 446.71875 C 544.304688 445.15625 543.636719 444.183594 542.414062 443.496094 C 541.488281 442.980469 541.199219 442.941406 537.628906 442.871094 L 533.828125 442.792969 Z M 63.664062 454.394531 L 63.664062 465.796875 L 67.796875 465.695312 C 71.316406 465.605469 72.121094 465.519531 73.25 465.113281 C 77.089844 463.722656 78.796875 460.882812 79.027344 455.503906 C 79.222656 450.964844 78.496094 448.074219 76.648438 446.054688 C 74.707031 443.929688 72.804688 443.324219 67.464844 443.128906 L 63.664062 442.988281 Z M 100.460938 445.605469 C 95.898438 446.585938 92.441406 450.113281 91.402344 454.84375 C 90.988281 456.726562 91.046875 461.113281 91.507812 462.886719 C 92.625 467.171875 95.035156 469.847656 99.074219 471.289062 C 100 471.621094 101.109375 471.777344 103.128906 471.859375 C 107.609375 472.046875 110.117188 471.257812 112.4375 468.9375 C 113.632812 467.742188 114.726562 465.996094 114.410156 465.785156 C 112.660156 464.613281 110.160156 463.105469 109.964844 463.105469 C 109.824219 463.105469 109.710938 463.1875 109.710938 463.285156 C 109.710938 463.386719 109.355469 463.886719 108.917969 464.394531 C 107.789062 465.714844 106.636719 466.242188 104.625 466.363281 C 102.363281 466.5 100.726562 466.019531 99.59375 464.886719 C 98.695312 463.988281 97.816406 462.011719 97.816406 460.894531 L 97.816406 460.242188 L 105.925781 460.242188 C 112.332031 460.242188 114.117188 460.179688 114.4375 459.949219 C 114.800781 459.679688 114.828125 459.375 114.722656 456.476562 C 114.632812 453.96875 114.507812 453.007812 114.121094 451.914062 C 112.84375 448.292969 110.171875 446.140625 106.140625 445.488281 C 104.28125 445.1875 102.195312 445.230469 100.460938 445.605469 M 128.441406 445.605469 C 123.757812 446.613281 120.300781 450.117188 119.292969 454.882812 C 118.882812 456.820312 118.882812 460.371094 119.300781 462.328125 C 120.054688 465.898438 122.238281 468.949219 125.117188 470.460938 C 127.089844 471.496094 128.945312 471.910156 131.644531 471.914062 C 135.332031 471.921875 137.679688 471.054688 139.785156 468.917969 C 140.820312 467.863281 142.324219 465.375 142.316406 464.726562 C 142.316406 464.527344 137.820312 462.003906 137.46875 462.003906 C 137.355469 462.003906 137.050781 462.503906 136.789062 463.113281 C 136.195312 464.488281 134.734375 465.816406 133.394531 466.191406 C 131.898438 466.609375 129.777344 466.371094 128.542969 465.644531 C 126.550781 464.480469 125.683594 462.285156 125.703125 458.480469 C 125.714844 455.695312 126.171875 454.046875 127.28125 452.75 C 128.445312 451.386719 129.554688 450.902344 131.523438 450.894531 C 134.0625 450.882812 135.523438 451.773438 136.9375 454.195312 C 137.15625 454.566406 137.375 454.460938 139.519531 452.960938 C 140.808594 452.058594 141.867188 451.210938 141.871094 451.078125 C 141.890625 450.550781 140.082031 448.101562 139.191406 447.449219 C 136.574219 445.527344 132.242188 444.785156 128.441406 445.605469 M 165.941406 445.582031 C 162.917969 446.269531 160.816406 447.765625 159.730469 449.996094 C 158.992188 451.511719 158.957031 454.554688 159.65625 456.089844 C 160.75 458.492188 162.90625 459.804688 167.683594 460.984375 C 170.648438 461.714844 171.753906 462.140625 172.253906 462.742188 C 172.730469 463.3125 172.800781 464.523438 172.402344 465.292969 C 171.855469 466.351562 170.816406 466.699219 168.542969 466.589844 C 166.230469 466.476562 164.609375 465.800781 163.144531 464.335938 C 162.589844 463.78125 162.007812 463.324219 161.847656 463.324219 C 161.6875 463.324219 160.792969 464.167969 159.855469 465.199219 C 158.589844 466.589844 158.1875 467.175781 158.285156 467.488281 C 158.519531 468.226562 160.585938 469.953125 161.992188 470.589844 C 164.015625 471.5 166.195312 471.917969 168.917969 471.917969 C 172.835938 471.917969 175.230469 471.023438 177.214844 468.816406 C 179.722656 466.027344 179.703125 461.273438 177.175781 458.746094 C 175.96875 457.539062 174.335938 456.804688 171.160156 456.042969 C 166.757812 454.984375 166.566406 454.917969 165.882812 454.28125 C 165.367188 453.800781 165.234375 453.488281 165.234375 452.773438 C 165.234375 451.15625 166.3125 450.519531 169.035156 450.523438 C 170.414062 450.527344 171.011719 450.644531 172.050781 451.109375 C 172.765625 451.429688 173.574219 451.929688 173.847656 452.222656 C 174.121094 452.511719 174.464844 452.75 174.613281 452.75 C 174.765625 452.75 175.65625 451.902344 176.59375 450.871094 L 178.300781 448.988281 L 177.550781 448.207031 C 176.570312 447.1875 175.238281 446.414062 173.542969 445.878906 C 171.714844 445.304688 167.824219 445.152344 165.941406 445.582031 M 206.101562 445.609375 C 201.425781 446.652344 198.070312 450.082031 197.070312 454.84375 C 196.644531 456.863281 196.652344 460.28125 197.082031 462.371094 C 198.089844 467.246094 201.183594 470.492188 205.878906 471.601562 C 207.636719 472.015625 211.289062 472.003906 212.941406 471.582031 C 217.347656 470.457031 220.324219 467.445312 221.542969 462.886719 C 222.070312 460.90625 222.078125 456.464844 221.5625 454.511719 C 220.378906 450.070312 217.566406 447.042969 213.484375 445.820312 C 211.722656 445.292969 208 445.1875 206.101562 445.609375 M 239.753906 445.601562 C 239.113281 445.773438 238.289062 446.070312 237.921875 446.261719 C 236.992188 446.742188 235.617188 448.019531 235.0625 448.917969 C 234.804688 449.328125 234.507812 449.667969 234.394531 449.667969 C 234.285156 449.667969 234.191406 448.769531 234.191406 447.675781 L 234.191406 445.6875 L 231.054688 445.75 L 227.914062 445.8125 L 227.855469 458.644531 L 227.800781 471.476562 L 234.414062 471.476562 L 234.414062 464.109375 C 234.414062 459.496094 234.507812 456.300781 234.660156 455.570312 C 235.261719 452.730469 236.875 451.167969 239.515625 450.859375 C 240.921875 450.695312 242.46875 451.058594 243.191406 451.722656 C 244.445312 452.878906 244.433594 452.78125 244.507812 462.5 L 244.574219 471.476562 L 250.9375 471.476562 L 250.933594 462.058594 C 250.929688 450.640625 250.820312 449.898438 248.792969 447.652344 C 246.945312 445.609375 243.027344 444.71875 239.753906 445.601562 M 563.078125 445.488281 C 561.503906 445.753906 559.863281 446.332031 558.390625 447.140625 C 557.011719 447.898438 554.980469 449.550781 554.980469 449.914062 C 554.980469 450.15625 557.582031 454.074219 557.742188 454.074219 C 557.800781 454.074219 558.398438 453.625 559.066406 453.082031 C 561.144531 451.386719 563.246094 450.554688 565.445312 450.550781 C 567.921875 450.546875 569.078125 451.367188 569.078125 453.121094 C 569.078125 454.859375 568.128906 455.375 563.019531 456.386719 C 560.039062 456.976562 557.671875 457.902344 556.402344 458.976562 C 556.03125 459.289062 555.441406 460.074219 555.089844 460.71875 C 554.558594 461.691406 554.433594 462.21875 554.359375 463.789062 C 554.109375 468.964844 557.027344 471.917969 562.390625 471.917969 C 565.453125 471.917969 567.625 470.910156 568.820312 468.9375 C 569.144531 468.402344 569.488281 467.964844 569.585938 467.960938 C 569.683594 467.957031 569.898438 468.273438 570.0625 468.667969 C 570.519531 469.765625 571.234375 470.558594 572.242188 471.097656 C 573.015625 471.511719 573.496094 471.585938 575.359375 471.582031 C 578.242188 471.574219 579.003906 471.226562 578.847656 469.996094 C 578.792969 469.539062 578.675781 468.519531 578.59375 467.734375 L 578.441406 466.300781 L 577.328125 466.371094 C 575.53125 466.488281 575.59375 466.757812 575.46875 458.390625 L 575.359375 451.097656 L 574.777344 449.859375 C 573.601562 447.351562 571.683594 445.988281 568.640625 445.496094 C 567.011719 445.230469 564.617188 445.226562 563.078125 445.488281 M 630.328125 445.605469 C 625.769531 446.585938 622.3125 450.113281 621.273438 454.84375 C 620.859375 456.726562 620.914062 461.113281 621.378906 462.886719 C 622.496094 467.171875 624.90625 469.847656 628.941406 471.289062 C 629.871094 471.621094 630.980469 471.777344 633 471.859375 C 637.476562 472.046875 639.988281 471.257812 642.308594 468.9375 C 643.503906 467.742188 644.597656 465.996094 644.28125 465.785156 C 642.53125 464.613281 640.027344 463.105469 639.832031 463.105469 C 639.695312 463.105469 639.582031 463.1875 639.582031 463.285156 C 639.582031 463.386719 639.222656 463.886719 638.789062 464.394531 C 637.660156 465.714844 636.503906 466.242188 634.496094 466.363281 C 632.234375 466.5 630.597656 466.019531 629.464844 464.886719 C 628.566406 463.988281 627.683594 462.011719 627.683594 460.894531 L 627.683594 460.242188 L 635.792969 460.242188 C 642.203125 460.242188 643.988281 460.179688 644.304688 459.949219 C 644.671875 459.679688 644.695312 459.375 644.59375 456.476562 C 644.503906 453.96875 644.375 453.007812 643.988281 451.914062 C 642.714844 448.292969 640.039062 446.140625 636.011719 445.488281 C 634.152344 445.1875 632.066406 445.230469 630.328125 445.605469 M 682.65625 445.472656 C 680.609375 445.921875 678.832031 447.066406 677.6875 448.65625 C 677.289062 449.210938 676.878906 449.667969 676.777344 449.667969 C 676.679688 449.667969 676.597656 448.773438 676.597656 447.683594 L 676.597656 445.699219 L 670.425781 445.699219 L 670.425781 471.476562 L 676.78125 471.476562 L 676.867188 463.601562 C 676.96875 454.582031 677.046875 454.097656 678.644531 452.433594 C 680.851562 450.136719 685.230469 450.285156 686.433594 452.699219 C 686.804688 453.453125 686.847656 454.273438 686.90625 462.5 L 686.96875 471.476562 L 693.59375 471.476562 L 693.503906 461.839844 C 693.40625 451.621094 693.367188 451.210938 692.28125 449.089844 C 691.617188 447.789062 689.863281 446.296875 688.460938 445.835938 C 687.089844 445.390625 683.929688 445.191406 682.65625 445.472656 M 661.554688 445.71875 C 659.722656 446.152344 658.171875 447.355469 657.316406 449.007812 C 656.742188 450.117188 656.546875 449.777344 656.546875 447.675781 L 656.546875 445.6875 L 653.40625 445.75 L 650.269531 445.8125 L 650.152344 471.476562 L 656.734375 471.476562 L 656.820312 463.933594 C 656.890625 457.476562 656.957031 456.214844 657.289062 455.207031 C 657.757812 453.785156 659.136719 452.214844 660.230469 451.851562 C 661.222656 451.527344 663.507812 451.527344 664.351562 451.855469 C 665.28125 452.21875 665.445312 451.933594 666.023438 448.929688 C 666.59375 445.976562 666.632812 446.089844 664.851562 445.707031 C 663.625 445.445312 662.714844 445.445312 661.554688 445.71875 M 146.875 445.847656 C 146.792969 445.929688 146.726562 451.726562 146.726562 458.734375 L 146.726562 471.476562 L 153.335938 471.476562 L 153.335938 445.699219 L 150.179688 445.699219 C 148.441406 445.699219 146.953125 445.765625 146.875 445.847656 M 184.328125 445.847656 C 184.246094 445.929688 184.179688 451.726562 184.179688 458.734375 L 184.179688 471.476562 L 190.789062 471.476562 L 190.789062 445.699219 L 187.632812 445.699219 C 185.894531 445.699219 184.410156 445.765625 184.328125 445.847656 M 101.652344 450.636719 C 101.160156 450.792969 100.433594 451.15625 100.046875 451.445312 C 99.351562 451.957031 98.207031 454.011719 97.941406 455.230469 L 97.808594 455.835938 L 108.660156 455.835938 L 108.511719 455.007812 C 108.164062 453.066406 107.878906 452.394531 107.070312 451.625 C 105.792969 450.410156 103.640625 450.015625 101.652344 450.636719 M 631.523438 450.636719 C 631.027344 450.792969 630.304688 451.15625 629.914062 451.445312 C 629.21875 451.957031 628.078125 454.011719 627.808594 455.230469 L 627.675781 455.835938 L 638.53125 455.835938 L 638.382812 455.007812 C 638.03125 453.066406 637.746094 452.394531 636.941406 451.625 C 635.664062 450.410156 633.507812 450.015625 631.523438 450.636719 M 207.496094 451.0625 C 205.175781 451.714844 203.964844 453.46875 203.535156 456.796875 C 203.347656 458.234375 203.347656 459.1875 203.53125 460.484375 C 204.144531 464.8125 206.128906 466.632812 209.945312 466.359375 C 212.796875 466.15625 214.441406 464.554688 215.035156 461.394531 C 215.375 459.609375 215.191406 455.882812 214.699219 454.484375 C 214.222656 453.125 213.039062 451.785156 211.929688 451.339844 C 210.671875 450.835938 208.726562 450.714844 207.496094 451.0625 M 378.40625 458.535156 C 377.957031 458.929688 377.800781 459.351562 377.625 460.609375 C 377.058594 464.734375 376.542969 497.308594 376.9375 504.054688 C 377.1875 508.304688 377.40625 509.566406 377.984375 510.144531 C 378.304688 510.464844 378.371094 510.464844 378.75 510.117188 C 380.640625 508.410156 381.800781 493.949219 381.878906 471.148438 C 381.914062 461.042969 381.886719 460.074219 381.535156 459.429688 C 380.757812 458.011719 379.429688 457.632812 378.40625 458.535156 M 568.140625 459.265625 C 567.808594 459.449219 566.429688 459.839844 565.078125 460.140625 C 562.296875 460.753906 561.335938 461.316406 560.921875 462.578125 C 560.375 464.230469 561.019531 465.925781 562.484375 466.699219 C 563.691406 467.332031 565.929688 467.136719 567.128906 466.292969 C 568.601562 465.257812 569.132812 463.988281 569.253906 461.21875 C 569.367188 458.707031 569.320312 458.625 568.140625 459.265625 M 599.375 484.957031 C 597.527344 488.425781 593.464844 495.34375 590.847656 499.472656 C 574.191406 525.78125 550.773438 550.472656 525.054688 568.84375 C 516.308594 575.089844 504.632812 582.292969 497.625 585.761719 C 495.316406 586.90625 486.722656 590.992188 485.609375 591.476562 L 484.871094 591.796875 L 485.554688 590.601562 C 486.347656 589.214844 486.417969 588.425781 485.796875 587.808594 C 485.253906 587.265625 484.664062 587.246094 484.085938 587.753906 C 483.5 588.265625 480.289062 594.375 480.289062 594.976562 C 480.289062 595.863281 481.042969 596.207031 484.632812 596.96875 C 486.546875 597.375 488.285156 597.710938 488.496094 597.714844 C 489.09375 597.726562 489.765625 596.914062 489.765625 596.183594 C 489.765625 595.375 489.238281 595.019531 487.488281 594.648438 C 486.78125 594.5 486.238281 594.347656 486.277344 594.3125 C 486.371094 594.226562 495.4375 590 497.082031 589.273438 C 497.777344 588.96875 499.609375 588.003906 501.160156 587.128906 C 514.214844 579.75 525.386719 572.40625 535.261719 564.707031 C 556.089844 548.464844 575.375 527.738281 589.941406 505.949219 C 594.617188 498.957031 600.84375 488.535156 603.535156 483.210938 L 604.117188 482.054688 L 600.914062 482.0625 Z M 158.234375 484.132812 C 157.914062 484.539062 157.714844 485.46875 157.425781 487.933594 C 156.949219 491.9375 156.996094 492.640625 157.753906 493.003906 C 158.953125 493.574219 159.6875 492.871094 159.886719 490.949219 C 159.953125 490.296875 160.078125 489.765625 160.167969 489.765625 C 160.363281 489.765625 164.863281 497.59375 164.929688 498.050781 C 165 498.53125 169.140625 504.957031 172.152344 509.261719 C 190.542969 535.546875 213.070312 557.695312 239.152344 575.144531 C 249.878906 582.324219 257.652344 586.820312 268.671875 592.230469 C 274.828125 595.253906 283.789062 599.261719 285.167969 599.605469 L 285.769531 599.757812 L 285.636719 596.78125 L 282.113281 595.304688 C 270.417969 590.40625 256.363281 583.015625 245.347656 575.964844 C 218.125 558.554688 193.9375 535.351562 175.101562 508.589844 C 171.699219 503.757812 170.316406 501.550781 166.679688 495.164062 C 164.886719 492.011719 163.226562 489.109375 162.984375 488.714844 L 162.550781 488 L 163.121094 488.214844 C 163.4375 488.335938 163.984375 488.585938 164.34375 488.769531 C 165.257812 489.242188 165.960938 489.183594 166.515625 488.59375 C 167.617188 487.421875 167.003906 486.808594 162.941406 485.03125 C 161.132812 484.242188 159.429688 483.597656 159.15625 483.597656 C 158.878906 483.597656 158.464844 483.835938 158.234375 484.132812 M 344.183594 489.039062 C 342.253906 489.410156 342.785156 493.632812 345.453125 499.128906 C 347.28125 502.890625 349.953125 506.53125 351.460938 507.308594 C 352.039062 507.609375 352.15625 507.613281 352.441406 507.328125 C 352.714844 507.054688 352.726562 506.796875 352.511719 505.710938 C 351.660156 501.386719 347.566406 491.84375 345.617188 489.621094 C 345.261719 489.214844 344.90625 488.898438 344.824219 488.914062 C 344.746094 488.929688 344.457031 488.988281 344.183594 489.039062 M 417.367188 490.753906 C 415.941406 491.605469 414.214844 494.113281 412.019531 498.511719 C 409.664062 503.226562 408.183594 507.425781 408.15625 509.484375 C 408.136719 510.691406 408.179688 510.8125 408.632812 510.875 C 409.902344 511.054688 414.484375 504.566406 417.953125 497.675781 L 418.820312 495.945312 L 418.820312 493.074219 C 418.820312 489.867188 418.828125 489.875 417.367188 490.753906 M 336.449219 517.445312 C 335.472656 518.128906 335.320312 518.949219 335.320312 523.578125 C 335.320312 525.945312 335.246094 527.878906 335.15625 527.878906 C 335.0625 527.878906 333.617188 527.421875 331.9375 526.863281 C 328.453125 525.699219 327.863281 525.714844 327.007812 526.984375 L 326.507812 527.726562 L 326.507812 559.941406 C 326.507812 591.636719 326.515625 592.164062 326.941406 592.703125 C 327.179688 593.007812 327.648438 593.363281 327.988281 593.496094 C 329.175781 593.960938 334.605469 595.296875 339.726562 596.382812 C 364.597656 601.65625 365.753906 602.125 374.460938 610.507812 C 379.34375 615.207031 379.789062 615.5 381.066406 614.835938 C 381.414062 614.65625 382.878906 613.234375 384.3125 611.679688 C 388.804688 606.816406 390.554688 605.328125 393.925781 603.507812 C 397.507812 601.570312 400.292969 600.75 412.433594 598.050781 C 417.097656 597.011719 423.394531 595.515625 426.421875 594.726562 C 431.332031 593.449219 431.996094 593.222656 432.535156 592.640625 L 433.140625 591.984375 L 433.140625 527.199219 L 432.609375 526.667969 C 431.695312 525.753906 431.199219 525.773438 427.917969 526.867188 C 426.246094 527.425781 424.804688 527.878906 424.714844 527.878906 C 424.625 527.878906 424.550781 525.945312 424.550781 523.578125 C 424.550781 518.949219 424.398438 518.128906 423.421875 517.445312 C 422.6875 516.929688 422.152344 516.980469 418.359375 517.949219 C 416.492188 518.425781 413.328125 519.125 411.332031 519.507812 C 406.21875 520.480469 397.605469 522.621094 394.476562 523.695312 C 389.65625 525.351562 384.402344 528.195312 380.933594 531.027344 L 379.730469 532.007812 L 378.289062 530.851562 C 371.980469 525.777344 364.929688 522.988281 351.292969 520.171875 C 348.871094 519.671875 344.902344 518.769531 342.480469 518.171875 C 337.621094 516.972656 337.195312 516.921875 336.449219 517.445312 M 339.945312 552.378906 L 339.945312 582.429688 L 344.628906 583.570312 C 347.203125 584.199219 350.898438 585.015625 352.835938 585.386719 C 363.496094 587.433594 370.25 589.941406 376.519531 594.183594 L 377.511719 594.851562 L 377.636719 536.140625 L 376.472656 535.078125 C 374.746094 533.5 371.679688 531.511719 368.738281 530.058594 C 364.269531 527.855469 359.121094 526.394531 346.335938 523.703125 C 343.367188 523.078125 340.714844 522.511719 340.441406 522.445312 L 339.945312 522.324219 Z M 418.160156 522.710938 C 417.492188 522.878906 414.273438 523.574219 411 524.253906 C 395.691406 527.445312 389.144531 529.988281 383.566406 534.898438 L 382.25 536.058594 L 382.25 565.585938 C 382.25 581.828125 382.324219 595.082031 382.414062 595.039062 C 382.503906 595 383.472656 594.378906 384.5625 593.660156 C 387.210938 591.914062 391.652344 589.824219 395.027344 588.730469 C 398.425781 587.628906 401.273438 586.910156 409.457031 585.082031 C 412.972656 584.296875 416.765625 583.429688 417.886719 583.152344 L 419.921875 582.648438 L 419.921875 552.511719 C 419.921875 528.535156 419.867188 522.375 419.648438 522.390625 C 419.496094 522.402344 418.828125 522.546875 418.160156 522.710938 M 427.414062 531.65625 C 426.746094 531.878906 425.78125 532.21875 425.269531 532.410156 L 424.335938 532.761719 L 424.21875 585.128906 L 423.679688 585.703125 C 422.894531 586.539062 419.902344 587.335938 407.867188 589.910156 C 394.203125 592.835938 388.386719 595.351562 382.0625 601.082031 C 380.878906 602.152344 380.53125 602.347656 379.832031 602.347656 C 379.117188 602.347656 378.765625 602.136719 377.292969 600.820312 C 371.066406 595.261719 364.542969 592.511719 351.089844 589.777344 C 347.953125 589.136719 339.847656 587.273438 337.789062 586.71875 C 337.269531 586.578125 336.527344 586.179688 336.136719 585.832031 L 335.429688 585.199219 L 335.371094 558.976562 L 335.316406 532.753906 L 333.390625 532.179688 C 332.332031 531.863281 331.339844 531.5625 331.1875 531.511719 C 330.96875 531.4375 330.914062 537.324219 330.914062 560.453125 L 330.914062 589.488281 L 335.484375 590.722656 C 340.621094 592.105469 341.523438 592.320312 350.191406 594.195312 C 365.460938 597.5 369.285156 599.296875 377.132812 606.859375 L 380.058594 609.679688 L 383.523438 606.15625 C 387.398438 602.210938 389.171875 600.90625 393.292969 598.953125 C 397.265625 597.074219 401.296875 595.921875 411.441406 593.765625 C 414.347656 593.148438 417.820312 592.390625 419.152344 592.078125 C 421.6875 591.488281 428.523438 589.632812 428.660156 589.5 C 428.703125 589.457031 428.710938 576.332031 428.679688 560.335938 L 428.625 531.253906 Z M 429.832031 612.980469 C 427.5 614.15625 426.996094 617.175781 428.824219 619.003906 C 430.5625 620.742188 433.863281 620.40625 435.085938 618.367188 C 437.160156 614.910156 433.476562 611.136719 429.832031 612.980469 M 278.402344 614.832031 C 278.324219 614.914062 278.257812 622.597656 278.257812 631.90625 L 278.257812 648.835938 L 284.867188 648.835938 L 284.867188 637.160156 C 284.867188 627.378906 284.917969 625.480469 285.171875 625.480469 C 285.335938 625.480469 288.71875 630.734375 292.683594 637.160156 L 299.890625 648.835938 L 306.902344 648.835938 L 306.84375 631.816406 L 306.789062 614.796875 L 300.398438 614.796875 L 300.34375 625.757812 C 300.296875 634.308594 300.226562 636.71875 300.011719 636.714844 C 299.863281 636.710938 296.726562 631.859375 293.042969 625.929688 C 289.359375 620.003906 286.242188 615.046875 286.113281 614.917969 C 285.855469 614.664062 278.65625 614.582031 278.402344 614.832031 M 412.265625 617.621094 L 409.566406 618.074219 L 409.566406 623.058594 L 405.601562 623.058594 L 405.601562 628.347656 L 409.566406 628.347656 L 409.570312 635.449219 C 409.574219 642.746094 409.675781 643.820312 410.515625 645.449219 C 411.867188 648.054688 414.273438 649.277344 418.066406 649.277344 C 420.210938 649.277344 422.261719 648.792969 423.582031 647.980469 L 424.269531 647.558594 L 423.472656 645.238281 C 423.03125 643.964844 422.601562 642.847656 422.515625 642.761719 C 422.429688 642.675781 421.84375 642.828125 421.210938 643.101562 C 420.324219 643.480469 419.769531 643.574219 418.785156 643.503906 C 417.292969 643.394531 416.523438 642.828125 416.179688 641.582031 C 416.058594 641.144531 415.960938 638.007812 415.957031 634.570312 L 415.957031 628.347656 L 423.226562 628.347656 L 423.226562 623.058594 L 415.957031 623.058594 L 415.957031 620.082031 C 415.957031 616.609375 416.421875 616.917969 412.265625 617.621094 M 322.046875 622.84375 C 319.332031 623.300781 316.417969 624.710938 314.683594 626.40625 L 313.765625 627.300781 L 315.125 629.359375 C 315.871094 630.492188 316.570312 631.421875 316.679688 631.425781 C 316.785156 631.429688 317.3125 631.027344 317.847656 630.53125 C 319.328125 629.167969 321.71875 628.121094 323.679688 627.972656 C 325.839844 627.8125 327.058594 628.152344 327.617188 629.074219 C 328.214844 630.050781 328.167969 631.035156 327.492188 631.839844 C 326.839844 632.613281 325.800781 632.984375 322.4375 633.632812 C 319.300781 634.242188 317.636719 634.804688 316.207031 635.742188 C 314.082031 637.136719 313.226562 638.847656 313.234375 641.675781 C 313.242188 643.636719 313.554688 644.78125 314.449219 646.109375 C 315.949219 648.339844 317.957031 649.277344 321.253906 649.277344 C 324.328125 649.277344 326.398438 648.332031 327.71875 646.324219 C 328.082031 645.773438 328.453125 645.316406 328.542969 645.316406 C 328.632812 645.3125 328.859375 645.683594 329.050781 646.136719 C 329.929688 648.246094 331.882812 649.207031 334.867188 648.996094 C 335.785156 648.933594 336.816406 648.75 337.164062 648.589844 L 337.792969 648.300781 L 337.644531 646.308594 C 337.441406 643.515625 337.484375 643.59375 336.25 643.714844 C 334.4375 643.886719 334.484375 644.085938 334.394531 635.835938 C 334.324219 629.117188 334.289062 628.605469 333.84375 627.507812 C 333.199219 625.914062 332.066406 624.597656 330.707031 623.859375 C 328.796875 622.816406 324.90625 622.363281 322.046875 622.84375 M 388.417969 622.929688 C 385.730469 623.496094 382.488281 625.1875 381.0625 626.769531 C 380.65625 627.222656 380.664062 627.25 381.671875 628.867188 C 382.234375 629.769531 382.875 630.730469 383.097656 631.007812 L 383.503906 631.507812 L 384.789062 630.460938 C 386.34375 629.195312 387.339844 628.667969 389.007812 628.234375 C 392.359375 627.363281 394.816406 628.230469 394.847656 630.300781 C 394.871094 632.128906 393.777344 632.789062 389.347656 633.625 C 385.445312 634.359375 383.429688 635.175781 381.941406 636.625 C 380.550781 637.980469 380.15625 639.101562 380.15625 641.679688 C 380.15625 643.730469 380.207031 643.992188 380.878906 645.359375 C 382.144531 647.925781 384.140625 649.085938 387.5625 649.234375 C 390.980469 649.382812 393.160156 648.460938 394.652344 646.238281 C 394.996094 645.726562 395.34375 645.316406 395.425781 645.324219 C 395.511719 645.332031 395.828125 645.847656 396.136719 646.476562 C 396.550781 647.320312 396.972656 647.785156 397.769531 648.28125 C 398.773438 648.898438 398.996094 648.945312 400.957031 648.945312 C 402.15625 648.945312 403.429688 648.820312 403.898438 648.652344 L 404.730469 648.359375 L 404.585938 646.890625 C 404.507812 646.082031 404.378906 645.023438 404.300781 644.539062 L 404.15625 643.65625 L 403.171875 643.726562 C 402.554688 643.769531 402.023438 643.671875 401.746094 643.46875 C 401.324219 643.15625 401.300781 642.820312 401.195312 635.691406 L 401.085938 628.234375 L 400.46875 626.980469 C 399.609375 625.230469 398.089844 623.917969 396.199219 623.296875 C 394.292969 622.667969 390.511719 622.488281 388.417969 622.929688 M 477.472656 622.953125 C 474.515625 623.597656 472.050781 625.152344 470.457031 627.382812 C 468.824219 629.675781 467.949219 632.644531 467.953125 635.910156 C 467.960938 642.828125 471.277344 647.585938 477.039062 648.945312 C 478.671875 649.328125 482.652344 649.378906 484.300781 649.03125 C 486.03125 648.667969 487.632812 647.839844 488.972656 646.613281 C 490.042969 645.636719 491.710938 643.414062 491.5 643.246094 C 490.78125 642.667969 487.074219 640.445312 486.929688 640.5 C 486.820312 640.539062 486.394531 641.015625 485.988281 641.554688 C 485.558594 642.117188 484.777344 642.773438 484.148438 643.09375 C 483.1875 643.589844 482.785156 643.65625 480.847656 643.65625 C 478.992188 643.65625 478.492188 643.574219 477.722656 643.167969 C 476.113281 642.308594 475.117188 640.710938 474.699219 638.316406 L 474.574219 637.597656 L 482.773438 637.597656 C 487.574219 637.59375 491.113281 637.503906 491.308594 637.382812 C 491.746094 637.105469 491.761719 632.082031 491.328125 630.328125 C 490.601562 627.375 488.777344 624.984375 486.390625 623.859375 C 483.941406 622.699219 480.328125 622.332031 477.472656 622.953125 M 353.328125 623.078125 C 351.496094 623.507812 349.941406 624.714844 349.089844 626.367188 C 348.515625 627.472656 348.320312 627.132812 348.320312 625.035156 L 348.320312 623.046875 L 345.179688 623.105469 L 342.039062 623.167969 L 341.984375 636.003906 L 341.925781 648.835938 L 348.507812 648.835938 L 348.59375 641.289062 C 348.664062 634.835938 348.730469 633.574219 349.0625 632.566406 C 349.53125 631.144531 350.910156 629.574219 352.003906 629.210938 C 352.996094 628.882812 355.28125 628.886719 356.125 629.214844 C 357.054688 629.578125 357.21875 629.292969 357.796875 626.285156 C 358.363281 623.332031 358.40625 623.449219 356.625 623.066406 C 355.398438 622.800781 354.488281 622.804688 353.328125 623.078125 M 373.144531 623.152344 C 371.636719 623.558594 370.347656 624.539062 369.578125 625.867188 C 368.601562 627.554688 368.367188 627.394531 368.367188 625.042969 L 368.367188 623.058594 L 362.199219 623.058594 L 362.199219 648.835938 L 368.589844 648.835938 L 368.589844 642.28125 C 368.589844 638.675781 368.695312 635.082031 368.824219 634.296875 C 369.425781 630.585938 371.066406 628.953125 374.191406 628.960938 C 375.046875 628.964844 376.003906 629.066406 376.316406 629.1875 C 376.632812 629.308594 376.988281 629.34375 377.113281 629.261719 C 377.234375 629.183594 377.570312 627.898438 377.855469 626.40625 C 378.445312 623.332031 378.488281 623.457031 376.675781 623.066406 C 375.324219 622.773438 374.472656 622.796875 373.144531 623.152344 M 428.515625 635.945312 L 428.515625 648.835938 L 434.90625 648.835938 L 434.90625 623.058594 L 428.515625 623.058594 Z M 439.097656 623.222656 C 439.105469 623.3125 441.222656 629.089844 443.800781 636.058594 L 448.496094 648.726562 L 456.339844 648.726562 L 460.9375 636.277344 C 463.464844 629.429688 465.585938 623.652344 465.65625 623.4375 C 465.773438 623.074219 465.558594 623.050781 462.441406 623.109375 L 459.097656 623.167969 L 456.253906 631.320312 C 452.691406 641.542969 452.765625 641.34375 452.457031 641.34375 C 452.316406 641.34375 450.769531 637.230469 449.019531 632.199219 L 445.835938 623.058594 L 442.464844 623.058594 C 440.609375 623.058594 439.09375 623.132812 439.097656 623.222656 M 478.578125 627.996094 C 478.058594 628.164062 477.296875 628.558594 476.886719 628.875 C 476.117188 629.460938 475.144531 631.214844 474.890625 632.476562 L 474.746094 633.191406 L 485.511719 633.191406 L 485.3125 631.929688 C 484.894531 629.261719 483.539062 627.980469 480.914062 627.789062 C 480.042969 627.726562 479.164062 627.800781 478.578125 627.996094 M 326.949219 636.625 C 326.644531 636.792969 325.652344 637.085938 324.746094 637.28125 C 320.796875 638.125 319.894531 638.75 319.726562 640.757812 C 319.53125 643.09375 320.851562 644.433594 323.3125 644.40625 C 324.722656 644.390625 325.671875 644.042969 326.542969 643.21875 C 327.609375 642.210938 328.023438 641.027344 328.191406 638.511719 C 328.328125 636.40625 328.3125 636.277344 327.917969 636.300781 C 327.6875 636.3125 327.25 636.457031 326.949219 636.625 M 393.855469 636.632812 C 393.511719 636.816406 392.273438 637.171875 391.101562 637.421875 C 387.457031 638.199219 386.5625 638.972656 386.582031 641.308594 C 386.601562 643.3125 387.894531 644.433594 390.179688 644.421875 C 393.390625 644.410156 395.027344 642.28125 395.027344 638.109375 C 395.027344 636.121094 394.957031 636.035156 393.855469 636.632812 " fill-opacity="1" fill-rule="evenodd"/></svg>