<svg xmlns="http://www.w3.org/2000/svg" xmlns:xlink="http://www.w3.org/1999/xlink" width="1000" zoomAndPan="magnify" viewBox="0 0 750 749.999995" height="1000" preserveAspectRatio="xMidYMid meet" version="1.0"><path fill="#ffffff" d="M 406.933594 77.757812 C 397.957031 79.136719 389.460938 82.542969 382.394531 87.601562 C 381.5 88.242188 380.59375 88.765625 380.386719 88.765625 C 380.175781 88.765625 379.597656 88.621094 379.101562 88.445312 C 377.457031 87.867188 372.628906 86.976562 369.9375 86.757812 C 366.65625 86.488281 362.207031 86.796875 358.460938 87.554688 C 347.859375 89.695312 338.394531 96.152344 332.3125 105.394531 C 330.789062 107.710938 328.890625 111.550781 328.15625 113.8125 L 327.636719 115.398438 L 326.425781 115.644531 C 318.164062 117.304688 310.707031 121.667969 305.535156 127.863281 C 301.1875 133.070312 298.679688 138.484375 297.570312 145.042969 C 297.152344 147.519531 297.101562 148.453125 297.199219 151.980469 C 297.324219 156.503906 297.703125 158.761719 298.976562 162.507812 C 300.789062 167.835938 303.40625 171.957031 307.683594 176.222656 C 311.089844 179.617188 313.605469 181.421875 317.617188 183.347656 C 322.324219 185.605469 327.921875 187.003906 332.257812 187.003906 L 333.363281 187.003906 L 319.125 201.265625 C 311.292969 209.109375 304.777344 215.742188 304.644531 216.007812 C 304.480469 216.328125 304.402344 218.855469 304.402344 223.621094 L 304.402344 230.753906 L 303.15625 231.269531 C 300.476562 232.378906 298.007812 235.46875 297.375 238.5 C 296.253906 243.871094 299.820312 249.273438 305.238281 250.410156 C 308.648438 251.128906 311.621094 250.226562 314.332031 247.644531 C 319.351562 242.867188 317.960938 234.449219 311.660156 231.445312 L 310.152344 230.722656 L 310.128906 218.386719 L 325.820312 202.695312 L 341.515625 187.003906 L 360.566406 187.003906 L 360.566406 197.503906 L 351.703125 206.292969 C 346.824219 211.125 342.613281 215.375 342.339844 215.730469 C 341.851562 216.375 341.84375 216.457031 341.84375 223.570312 L 341.84375 230.757812 L 340.46875 231.386719 C 337.625 232.691406 335.34375 235.734375 334.800781 238.957031 C 333.75 245.1875 339.152344 251.078125 345.480469 250.59375 C 350.804688 250.1875 354.820312 245.898438 354.835938 240.601562 C 354.847656 236.511719 352.773438 233.148438 349.203125 231.460938 L 347.863281 230.824219 L 347.71875 226.699219 C 347.636719 224.429688 347.574219 221.683594 347.574219 220.589844 L 347.570312 218.609375 L 356.734375 209.46875 C 361.878906 204.335938 366.03125 200.015625 366.207031 199.621094 C 366.445312 199.070312 366.515625 197.578125 366.515625 192.957031 L 366.515625 187.003906 L 380.832031 187.003906 L 380.824219 208.863281 L 380.820312 230.722656 L 379.285156 231.464844 C 376.507812 232.804688 374.3125 235.785156 373.75 238.976562 C 373.230469 241.925781 374.355469 245.316406 376.597656 247.5625 C 380.691406 251.652344 386.839844 251.671875 390.925781 247.597656 C 393.941406 244.59375 394.691406 239.878906 392.777344 235.945312 C 391.761719 233.859375 388.957031 231.386719 387.058594 230.910156 C 386.714844 230.824219 386.574219 230.667969 386.65625 230.457031 C 386.722656 230.28125 386.777344 220.433594 386.777344 208.570312 L 386.777344 187.003906 L 401.09375 187.003906 L 401.09375 193.179688 C 401.09375 198.125 401.160156 199.476562 401.410156 199.953125 C 401.585938 200.28125 405.796875 204.613281 410.773438 209.578125 L 419.816406 218.609375 L 419.816406 230.753906 L 418.550781 231.273438 C 416.921875 231.941406 414.445312 234.378906 413.597656 236.148438 C 410.757812 242.066406 414.375 249.171875 420.875 250.445312 C 425.851562 251.421875 430.847656 248.382812 432.371094 243.453125 C 433.832031 238.714844 431.558594 233.542969 427.082031 231.441406 L 425.550781 230.722656 L 425.546875 223.609375 C 425.542969 217.859375 425.484375 216.382812 425.226562 215.902344 C 425.054688 215.574219 420.839844 211.242188 415.867188 206.277344 L 406.820312 197.246094 L 406.820312 187.046875 L 413.703125 186.941406 C 418.617188 186.863281 421.214844 186.730469 422.78125 186.46875 L 424.976562 186.105469 L 441.121094 202.246094 L 457.261719 218.386719 L 457.261719 230.792969 L 455.882812 231.441406 C 451.351562 233.585938 449.136719 238.753906 450.648438 243.65625 C 452.171875 248.578125 457.632812 251.625 462.613281 250.328125 C 470.363281 248.3125 472.96875 238.988281 467.347656 233.398438 C 466.449219 232.503906 465.476562 231.796875 464.585938 231.386719 L 463.207031 230.757812 L 463.207031 223.761719 C 463.207031 219.390625 463.121094 216.535156 462.976562 216.15625 C 462.847656 215.820312 455.765625 208.554688 447.238281 200.007812 L 431.734375 184.46875 L 434.089844 183.613281 C 441.617188 180.878906 448.320312 176.574219 454.1875 170.710938 C 458.988281 165.917969 462.175781 161.535156 464.851562 156.054688 C 467.613281 150.398438 468.953125 145.992188 470.074219 138.875 C 470.488281 136.238281 470.417969 128.246094 469.953125 125 C 467.523438 108.144531 458.28125 94.085938 443.855469 85.304688 C 437.519531 81.445312 430.898438 79.035156 423.449219 77.867188 C 420.386719 77.386719 419.253906 77.316406 414.75 77.332031 C 410.90625 77.347656 408.894531 77.457031 406.933594 77.757812 M 409.90625 83.289062 C 400.695312 84.226562 391.675781 87.796875 384.285156 93.4375 C 383.179688 94.28125 382.023438 94.980469 381.601562 95.058594 C 381.050781 95.160156 380.1875 94.96875 378.234375 94.308594 C 374.109375 92.90625 372.214844 92.628906 366.84375 92.636719 C 361.761719 92.640625 359.703125 92.945312 355.613281 94.289062 C 344.976562 97.789062 336.191406 106.8125 333.121094 117.394531 C 332.824219 118.421875 332.433594 119.484375 332.253906 119.757812 C 331.78125 120.476562 330.753906 120.9375 329.097656 121.171875 C 319.789062 122.484375 311.550781 128.027344 306.792969 136.171875 C 305.464844 138.449219 304.222656 141.773438 303.582031 144.761719 C 302.851562 148.175781 302.757812 153.117188 303.371094 156.277344 C 305.136719 165.414062 310.710938 173.082031 318.71875 177.382812 C 323.261719 179.824219 327.660156 180.9375 333.75 181.191406 L 337.441406 181.34375 L 337.425781 154.734375 L 336.074219 153.964844 C 333.011719 152.21875 331.246094 148.386719 331.9375 145.003906 C 332.507812 142.234375 334.261719 139.9375 336.796875 138.640625 C 338.21875 137.914062 340.773438 137.671875 342.625 138.085938 C 345.238281 138.671875 347.738281 141.046875 348.675781 143.832031 C 349.347656 145.824219 349.226562 148.320312 348.375 150.066406 C 347.550781 151.746094 346.066406 153.335938 344.605469 154.097656 L 343.386719 154.734375 L 343.386719 181.277344 L 360.566406 181.277344 L 360.566406 172.03125 L 359.503906 171.492188 C 358.027344 170.746094 356.097656 168.597656 355.484375 167.019531 C 354.777344 165.210938 354.777344 162.488281 355.480469 160.714844 C 357.429688 155.792969 363.359375 153.664062 367.769531 156.308594 C 369.609375 157.410156 370.398438 158.261719 371.320312 160.121094 C 372.082031 161.664062 372.128906 161.882812 372.128906 163.867188 C 372.128906 165.8125 372.074219 166.09375 371.398438 167.460938 C 370.5625 169.164062 368.914062 170.902344 367.484375 171.59375 L 366.515625 172.0625 L 366.515625 181.277344 L 380.832031 181.277344 L 380.832031 134.449219 L 380.054688 134.167969 C 378.773438 133.703125 376.738281 131.640625 375.933594 129.984375 C 375.28125 128.636719 375.222656 128.347656 375.21875 126.316406 C 375.214844 124.261719 375.265625 124.007812 375.9375 122.640625 C 376.890625 120.703125 378.28125 119.304688 380.121094 118.433594 C 381.480469 117.789062 381.785156 117.730469 383.816406 117.730469 C 385.898438 117.730469 386.117188 117.773438 387.507812 118.480469 C 392.925781 121.230469 394.082031 128.269531 389.804688 132.445312 C 389.160156 133.078125 388.214844 133.78125 387.703125 134.007812 L 386.777344 134.425781 L 386.777344 181.277344 L 401.09375 181.277344 L 401.09375 172.113281 L 400.160156 171.65625 C 398.597656 170.898438 397 169.285156 396.199219 167.664062 C 395.523438 166.289062 395.476562 166.054688 395.476562 163.875 C 395.476562 161.699219 395.523438 161.464844 396.199219 160.089844 C 397.027344 158.410156 398.714844 156.726562 400.34375 155.960938 C 406.492188 153.070312 413.40625 158.300781 412.511719 165.171875 C 412.179688 167.734375 410.160156 170.488281 407.753906 171.660156 L 406.8125 172.117188 L 406.871094 176.640625 L 406.933594 181.164062 L 409.90625 181.234375 C 413.421875 181.316406 420.652344 180.925781 422.679688 180.546875 L 424.113281 180.28125 L 424.167969 167.59375 L 424.226562 154.90625 L 422.757812 154.046875 C 416.773438 150.5625 417.007812 142.085938 423.179688 138.738281 C 424.503906 138.019531 424.640625 137.996094 426.976562 137.996094 C 429.210938 137.996094 429.5 138.042969 430.71875 138.640625 C 432.40625 139.46875 434.09375 141.15625 434.917969 142.839844 C 435.511719 144.046875 435.566406 144.363281 435.566406 146.480469 C 435.566406 148.652344 435.519531 148.886719 434.84375 150.261719 C 434.039062 151.898438 432.273438 153.683594 430.828125 154.320312 L 429.949219 154.707031 L 429.949219 166.78125 C 429.949219 173.421875 429.996094 178.851562 430.054688 178.851562 C 430.527344 178.851562 435.277344 176.863281 437.472656 175.742188 C 444.375 172.226562 450.75 166.847656 455.195312 160.792969 C 460.074219 154.140625 463.375 145.722656 464.300781 137.554688 C 464.820312 132.976562 464.460938 126.453125 463.425781 121.695312 C 460.730469 109.320312 452.972656 98.160156 442.171875 91.128906 C 432.792969 85.019531 421.019531 82.160156 409.90625 83.289062 M 413.492188 89.125 C 412.820312 89.457031 411.886719 90.910156 411.886719 91.628906 C 411.886719 92.273438 412.789062 93.75 413.40625 94.113281 C 413.875 94.390625 414.894531 94.550781 417.101562 94.699219 C 426.628906 95.339844 433.988281 98.519531 441.664062 105.304688 C 443.46875 106.898438 445.65625 106.652344 446.554688 104.753906 C 447.273438 103.238281 446.855469 102.132812 444.902344 100.355469 C 437.910156 94 429.144531 90.046875 419.707031 88.992188 C 416.753906 88.660156 414.328125 88.714844 413.492188 89.125 M 448.605469 109.441406 C 447.683594 110.046875 447.3125 110.707031 447.296875 111.757812 C 447.269531 113.464844 448.472656 114.757812 450.09375 114.757812 C 451.730469 114.757812 453.074219 113.464844 453.074219 111.894531 C 453.074219 109.707031 450.414062 108.246094 448.605469 109.441406 M 383.074219 123.582031 C 379.949219 124.25 380.429688 129.074219 383.621094 129.074219 C 385.363281 129.074219 386.558594 127.953125 386.558594 126.320312 C 386.558594 124.488281 384.90625 123.1875 383.074219 123.582031 M 266.074219 134.800781 C 265.03125 135.84375 265.808594 136.917969 267.832031 137.242188 C 268.617188 137.367188 269.28125 137.492188 269.304688 137.515625 C 269.382812 137.59375 265.769531 139.585938 262.332031 141.363281 C 247.035156 149.269531 231.078125 159.996094 217.078125 171.785156 C 192.371094 192.59375 171.242188 218.757812 156.417969 246.902344 C 155.429688 248.773438 154.625 250.335938 154.625 250.371094 C 154.625 250.40625 155.304688 250.4375 156.140625 250.4375 L 157.65625 250.4375 L 160.121094 245.898438 C 173.769531 220.792969 190.832031 199.195312 212.773438 179.269531 C 224.410156 168.699219 238.660156 158.199219 252.121094 150.28125 C 257.214844 147.285156 257.539062 147.101562 257.921875 147.019531 C 258.105469 146.984375 261.027344 145.410156 264.414062 143.527344 C 267.800781 141.644531 270.601562 140.136719 270.640625 140.175781 C 270.683594 140.214844 270.449219 140.859375 270.125 141.609375 L 269.53125 142.972656 L 269.972656 143.566406 C 270.519531 144.300781 271.5625 144.46875 272.058594 143.898438 C 272.25 143.679688 273.074219 141.992188 273.890625 140.148438 C 275.464844 136.59375 275.558594 135.988281 274.617188 135.507812 C 274.132812 135.261719 268.203125 134.359375 267.070312 134.359375 C 266.765625 134.359375 266.316406 134.558594 266.074219 134.800781 M 489.640625 139.042969 L 489.640625 140.648438 L 492.007812 141.816406 C 516.917969 154.105469 541.667969 172.53125 561.425781 193.5 C 565.933594 198.285156 570.65625 203.601562 572.058594 205.46875 C 572.546875 206.117188 574.96875 208.878906 577.445312 211.609375 C 579.921875 214.339844 581.902344 216.617188 581.847656 216.667969 C 581.796875 216.722656 581.171875 216.660156 580.464844 216.53125 C 579.324219 216.320312 579.113281 216.339844 578.625 216.703125 C 578.320312 216.925781 578.042969 217.367188 578.003906 217.683594 C 577.878906 218.738281 578.5 219.039062 582.335938 219.789062 C 584.292969 220.167969 586.089844 220.480469 586.328125 220.480469 C 586.570312 220.480469 586.933594 220.222656 587.140625 219.90625 C 587.492188 219.371094 587.492188 219.078125 587.183594 215.46875 C 586.875 211.921875 586.808594 211.570312 586.347656 211.195312 C 585.6875 210.664062 585.121094 210.683594 584.542969 211.257812 C 584.128906 211.675781 584.089844 211.90625 584.183594 213.367188 C 584.265625 214.671875 584.230469 214.945312 584.015625 214.714844 C 581.503906 212.027344 576.234375 206.0625 573.640625 202.972656 C 551.3125 176.386719 523.5625 154.414062 493 139.121094 L 489.640625 137.441406 Z M 339.851562 143.839844 C 338.25 144.269531 337.542969 145.28125 337.722656 146.867188 C 338.050781 149.789062 342.199219 150.242188 343.128906 147.457031 C 343.820312 145.371094 341.925781 143.277344 339.851562 143.839844 M 426.101562 143.941406 C 425.09375 144.300781 424.511719 144.964844 424.3125 145.976562 C 424.121094 146.953125 424.339844 147.671875 425.066406 148.488281 C 425.558594 149.039062 425.890625 149.191406 426.769531 149.269531 C 429.394531 149.496094 430.847656 146.738281 429.160156 144.730469 C 428.660156 144.136719 428.363281 143.976562 427.304688 143.714844 C 427.125 143.671875 426.582031 143.773438 426.101562 143.941406 M 362.421875 161.324219 C 360.085938 162.339844 360.253906 165.722656 362.679688 166.523438 C 363.824219 166.902344 364.828125 166.632812 365.617188 165.734375 C 366.902344 164.269531 366.398438 162.0625 364.613281 161.316406 C 363.71875 160.941406 363.292969 160.945312 362.421875 161.324219 M 402.636719 161.402344 C 400.480469 162.570312 400.769531 165.851562 403.089844 166.546875 C 405.394531 167.238281 407.363281 165.195312 406.609375 162.902344 C 406.097656 161.359375 404.105469 160.609375 402.636719 161.402344 M 622.457031 212.992188 C 622.042969 213.40625 622.015625 213.726562 622.015625 218.136719 C 622.015625 222.53125 622.042969 222.863281 622.449219 223.226562 C 622.6875 223.445312 623.136719 223.621094 623.449219 223.621094 C 623.757812 223.621094 624.207031 223.445312 624.445312 223.226562 C 624.851562 222.863281 624.878906 222.53125 624.878906 218.136719 C 624.878906 213.726562 624.851562 213.40625 624.4375 212.992188 C 624.195312 212.75 623.75 212.550781 623.449219 212.550781 C 623.144531 212.550781 622.699219 212.75 622.457031 212.992188 M 593.523438 226.445312 C 592.847656 226.972656 592.773438 227.726562 593.328125 228.367188 C 594.066406 229.214844 600.246094 233.917969 600.816406 234.0625 C 601.265625 234.175781 601.496094 234.078125 601.898438 233.609375 C 602.878906 232.472656 602.773438 232.332031 598.226562 228.703125 C 595.535156 226.550781 594.722656 225.988281 594.308594 225.988281 C 594.195312 225.988281 593.839844 226.195312 593.523438 226.445312 M 648.078125 229.578125 C 644.226562 232.621094 643.929688 232.992188 644.492188 234.042969 C 644.863281 234.734375 645.710938 234.910156 646.433594 234.4375 C 648.0625 233.378906 653.515625 228.785156 653.539062 228.460938 C 653.609375 227.453125 653.003906 226.648438 652.183594 226.648438 C 651.964844 226.648438 650.117188 227.96875 648.078125 229.578125 M 620.144531 227.558594 C 614.164062 228.304688 608.5 231.46875 604.753906 236.152344 C 599.183594 243.113281 598.066406 252.503906 601.855469 260.503906 C 603.160156 263.257812 604.46875 265.054688 607.070312 267.660156 C 610.308594 270.90625 611.484375 273.210938 611.914062 277.160156 C 612.058594 278.480469 612.304688 279.628906 612.515625 279.953125 C 612.816406 280.410156 612.894531 281.429688 612.984375 286.121094 C 613.089844 291.402344 613.125 291.789062 613.589844 292.660156 C 614.105469 293.621094 615.113281 294.523438 616.09375 294.898438 C 616.53125 295.0625 616.699219 295.316406 616.804688 295.960938 C 616.984375 297.105469 617.925781 298.496094 618.984375 299.179688 C 620.015625 299.851562 621.988281 300.121094 624.265625 299.910156 C 627.039062 299.652344 628.632812 298.335938 629.164062 295.859375 C 629.28125 295.328125 629.535156 295.03125 630.128906 294.726562 C 631.171875 294.1875 632.023438 293.28125 632.523438 292.175781 C 632.863281 291.414062 632.925781 290.570312 632.960938 285.964844 C 632.996094 281.386719 633.054688 280.558594 633.375 280.070312 C 633.59375 279.734375 633.824219 278.71875 633.9375 277.582031 C 634.367188 273.351562 635.398438 271.292969 638.984375 267.515625 C 641.886719 264.460938 642.523438 263.609375 643.785156 261.105469 C 645.546875 257.605469 646.246094 254.597656 646.242188 250.546875 C 646.234375 244.515625 644.136719 239.195312 640.082031 234.929688 C 636.066406 230.707031 631.078125 228.164062 625.566406 227.53125 C 623.390625 227.28125 622.3125 227.289062 620.144531 227.558594 M 620.109375 230.390625 C 615.203125 231.085938 610.226562 233.878906 607.171875 237.648438 C 601.441406 244.726562 600.894531 254.253906 605.792969 261.753906 C 606.433594 262.738281 607.917969 264.511719 609.085938 265.695312 C 610.253906 266.878906 611.519531 268.300781 611.898438 268.851562 C 613.417969 271.058594 614.734375 274.695312 614.742188 276.699219 L 614.746094 277.523438 L 615.464844 277.085938 C 615.855469 276.847656 616.664062 276.585938 617.253906 276.507812 L 618.328125 276.363281 L 618.175781 274.25 C 617.980469 271.53125 617.5 267.785156 616.910156 264.363281 C 616.464844 261.789062 616.414062 261.65625 615.871094 261.539062 C 613.207031 260.976562 611.308594 259.441406 610.761719 257.410156 C 609.921875 254.285156 613.109375 251.726562 615.621094 253.515625 C 616.382812 254.058594 617.425781 255.6875 617.949219 257.15625 C 618.476562 258.621094 618.550781 258.683594 619.34375 258.269531 L 620.027344 257.917969 L 619.039062 256.574219 C 617.804688 254.898438 617.316406 253.304688 617.425781 251.324219 C 617.492188 250.175781 617.644531 249.636719 618.097656 248.953125 C 619.921875 246.195312 625.050781 246.203125 627.078125 248.960938 C 628.785156 251.28125 628.398438 253.808594 625.925781 256.515625 C 625.285156 257.214844 624.898438 257.808594 625.011719 257.917969 C 625.121094 258.019531 625.566406 258.25 626 258.429688 L 626.792969 258.753906 L 627.265625 257.285156 C 628.253906 254.214844 629.800781 252.640625 631.835938 252.640625 C 633.195312 252.640625 634.269531 253.269531 634.855469 254.40625 C 635.160156 254.992188 635.238281 255.566406 635.1875 256.84375 C 635.128906 258.285156 635.035156 258.625 634.488281 259.34375 C 633.597656 260.507812 632.152344 261.359375 630.503906 261.683594 C 628.8125 262.019531 629.042969 261.234375 628.296875 269.324219 C 627.597656 276.882812 627.597656 276.425781 628.347656 276.433594 C 628.679688 276.433594 629.386719 276.632812 629.914062 276.875 C 630.441406 277.113281 630.90625 277.308594 630.945312 277.308594 C 630.988281 277.308594 631.085938 276.839844 631.164062 276.261719 C 631.503906 273.828125 632.605469 270.949219 633.9375 269.007812 C 634.339844 268.425781 635.675781 266.898438 636.910156 265.617188 C 640.480469 261.910156 642.183594 258.890625 643.027344 254.765625 C 643.464844 252.617188 643.484375 249.015625 643.066406 246.878906 C 641.5 238.875 635.199219 232.390625 627.359375 230.714844 C 625.449219 230.304688 621.847656 230.144531 620.109375 230.390625 M 306.714844 236.222656 C 306.59375 236.265625 306.222656 236.363281 305.890625 236.433594 C 305.085938 236.613281 303.746094 237.820312 303.375 238.699219 C 302.9375 239.753906 303.003906 241.496094 303.523438 242.515625 C 304.660156 244.742188 307.976562 245.394531 310.011719 243.796875 C 311.273438 242.800781 311.851562 240.488281 311.234375 238.875 C 310.933594 238.089844 310.015625 237.074219 309.246094 236.675781 C 308.660156 236.375 307.082031 236.09375 306.714844 236.222656 M 343.417969 236.441406 C 340.351562 237.429688 339.5625 241.386719 341.984375 243.648438 C 342.773438 244.390625 343.605469 244.710938 344.730469 244.710938 C 347.675781 244.710938 349.773438 241.902344 348.863281 239.183594 C 348.089844 236.871094 345.742188 235.691406 343.417969 236.441406 M 383.144531 236.21875 C 383.023438 236.265625 382.652344 236.363281 382.320312 236.433594 C 381.417969 236.632812 380.246094 237.78125 379.824219 238.878906 C 378.480469 242.398438 381.824219 245.738281 385.339844 244.394531 C 389.4375 242.828125 388.605469 236.808594 384.210938 236.242188 C 383.746094 236.183594 383.265625 236.171875 383.144531 236.21875 M 422.128906 236.21875 C 422.007812 236.265625 421.640625 236.363281 421.308594 236.433594 C 419.679688 236.792969 418.351562 238.960938 418.542969 240.957031 C 418.996094 245.660156 425.804688 246.027344 426.84375 241.398438 C 427.246094 239.589844 426.453125 237.691406 424.933594 236.835938 C 424.121094 236.378906 422.59375 236.042969 422.128906 236.21875 M 458.941406 236.390625 C 457.285156 236.828125 455.945312 238.730469 455.941406 240.644531 C 455.9375 241.609375 456.800781 243.148438 457.777344 243.925781 C 458.546875 244.539062 458.769531 244.601562 460.234375 244.601562 C 461.699219 244.601562 461.921875 244.539062 462.691406 243.925781 C 463.671875 243.148438 464.53125 241.613281 464.527344 240.644531 C 464.523438 238.605469 463.21875 236.839844 461.375 236.371094 C 460.222656 236.082031 460.101562 236.085938 458.941406 236.390625 M 622.347656 249.667969 C 622.226562 249.707031 621.859375 249.796875 621.535156 249.867188 C 620.570312 250.078125 620.253906 250.566406 620.257812 251.828125 C 620.265625 253.1875 620.816406 254.484375 621.769531 255.382812 L 622.460938 256.03125 L 623.417969 255.089844 C 624.386719 254.140625 625.320312 252.570312 625.320312 251.890625 C 625.320312 251.210938 624.6875 250.28125 624.0625 250.042969 C 623.210938 249.714844 622.605469 249.582031 622.347656 249.667969 M 333.199219 255.183594 C 333.109375 255.277344 333.035156 262.980469 333.035156 272.296875 L 333.035156 289.234375 L 341.238281 289.148438 C 348.835938 289.070312 349.574219 289.027344 351.207031 288.582031 C 355.601562 287.382812 358.804688 284.867188 360.515625 281.273438 C 361.992188 278.171875 362.21875 276.941406 362.203125 272.132812 C 362.1875 268.5625 362.117188 267.695312 361.714844 266.230469 C 360.054688 260.214844 356.160156 256.742188 349.664062 255.492188 C 348.140625 255.199219 333.449219 254.925781 333.199219 255.183594 M 590.296875 256.285156 C 586.078125 257.28125 585.453125 257.578125 585.453125 258.609375 C 585.453125 259.191406 586.230469 259.910156 586.855469 259.910156 C 587.144531 259.910156 589.292969 259.472656 591.636719 258.9375 C 596.121094 257.914062 596.464844 257.746094 596.464844 256.597656 C 596.464844 255.84375 595.832031 255.277344 595.015625 255.304688 C 594.664062 255.316406 592.539062 255.757812 590.296875 256.285156 M 631.175781 255.792969 C 630.679688 256.289062 629.613281 258.765625 629.808594 258.964844 C 629.957031 259.113281 631.78125 258.261719 632.070312 257.90625 C 632.210938 257.734375 632.347656 257.398438 632.371094 257.15625 C 632.546875 255.503906 632.042969 254.929688 631.175781 255.792969 M 613.558594 255.886719 C 613.214844 256.230469 613.503906 256.957031 614.3125 257.761719 C 614.800781 258.25 615.253906 258.59375 615.320312 258.527344 C 615.386719 258.460938 615.183594 257.863281 614.867188 257.195312 C 614.328125 256.058594 613.855469 255.585938 613.558594 255.886719 M 649.867188 256.484375 C 648.984375 257.367188 649.257812 258.390625 650.484375 258.78125 C 651.351562 259.058594 658.886719 260.789062 659.222656 260.789062 C 659.691406 260.789062 660.339844 259.898438 660.339844 259.253906 C 660.339844 258.8125 660.175781 258.488281 659.839844 258.269531 C 659.472656 258.027344 651.105469 255.945312 650.5 255.945312 C 650.449219 255.945312 650.167969 256.1875 649.867188 256.484375 M 399.277344 257.992188 L 396.46875 258.4375 L 396.46875 263.433594 L 392.503906 263.433594 L 392.503906 268.71875 L 396.445312 268.71875 L 396.511719 276.371094 L 396.578125 284.027344 L 397.148438 285.238281 C 398.703125 288.535156 401.074219 289.777344 405.472656 289.59375 C 407.820312 289.496094 409.59375 289.023438 410.667969 288.203125 C 411.09375 287.882812 411.085938 287.84375 410.390625 285.730469 C 409.410156 282.761719 409.511719 282.867188 408.121094 283.464844 C 407.226562 283.851562 406.671875 283.941406 405.683594 283.871094 C 404.191406 283.761719 403.425781 283.199219 403.078125 281.949219 C 402.957031 281.515625 402.859375 278.378906 402.859375 274.941406 L 402.855469 268.71875 L 410.125 268.71875 L 410.125 263.433594 L 402.855469 263.433594 L 402.855469 260.460938 C 402.855469 257.761719 402.820312 257.488281 402.472656 257.511719 C 402.257812 257.527344 400.824219 257.742188 399.277344 257.992188 M 621.90625 260.046875 C 621.664062 260.234375 620.960938 260.613281 620.347656 260.890625 L 619.226562 261.394531 L 619.625 263.347656 C 620.109375 265.738281 620.84375 271.386719 621.050781 274.289062 L 621.199219 276.429688 L 624.796875 276.429688 L 625.402344 269.703125 C 625.738281 266 626.054688 262.65625 626.113281 262.269531 C 626.210938 261.574219 626.179688 261.542969 624.390625 260.6875 C 623.746094 260.378906 623.101562 260.070312 622.457031 259.757812 C 622.394531 259.726562 622.148438 259.855469 621.90625 260.046875 M 339.863281 272.097656 L 339.863281 283.476562 L 343.234375 283.476562 C 346.988281 283.476562 348.617188 283.25 350.34375 282.488281 C 353.746094 280.980469 355.269531 277.777344 355.277344 272.113281 C 355.285156 265.835938 353.265625 262.574219 348.597656 261.3125 C 347.972656 261.144531 345.75 260.941406 343.664062 260.863281 L 339.863281 260.71875 Z M 376.316406 263.148438 C 374.910156 263.34375 372.992188 263.933594 371.683594 264.570312 C 370.230469 265.277344 367.890625 267 367.695312 267.503906 C 367.589844 267.777344 370.113281 271.800781 370.390625 271.800781 C 370.453125 271.800781 371.066406 271.347656 371.746094 270.796875 C 373.253906 269.566406 374.261719 269.039062 375.914062 268.609375 C 378.160156 268.023438 380.191406 268.246094 381.195312 269.191406 C 381.585938 269.558594 381.710938 269.914062 381.710938 270.644531 C 381.710938 271.175781 381.609375 271.800781 381.484375 272.035156 C 381.101562 272.753906 379.671875 273.3125 376.71875 273.894531 C 372.21875 274.785156 370.375 275.511719 368.851562 276.996094 C 367.460938 278.351562 367.066406 279.46875 367.066406 282.050781 C 367.066406 284.097656 367.117188 284.363281 367.789062 285.726562 C 368.574219 287.324219 369.535156 288.234375 371.289062 289.042969 C 372.199219 289.464844 372.726562 289.535156 374.996094 289.535156 C 377.4375 289.535156 377.730469 289.488281 378.882812 288.921875 C 380.011719 288.367188 381.007812 287.449219 381.941406 286.109375 C 382.273438 285.628906 382.289062 285.640625 383.042969 286.914062 C 384.007812 288.546875 385.070312 289.179688 387.15625 289.351562 C 388.570312 289.472656 390.734375 289.183594 391.359375 288.792969 C 391.589844 288.648438 391.589844 288.195312 391.359375 286.324219 L 391.074219 284.03125 L 389.871094 284.027344 C 388.078125 284.027344 388.105469 284.144531 388.101562 276.285156 C 388.101562 270.261719 388.058594 269.511719 387.65625 268.210938 C 386.808594 265.464844 384.519531 263.707031 381.144531 263.222656 C 379.636719 263.003906 377.59375 262.972656 376.316406 263.148438 M 422.128906 263.316406 C 420.382812 263.636719 418.390625 264.398438 417 265.273438 C 415.871094 265.988281 414.3125 267.367188 414.3125 267.652344 C 414.3125 267.890625 416.914062 271.800781 417.074219 271.800781 C 417.132812 271.800781 417.726562 271.355469 418.398438 270.8125 C 419.886719 269.597656 420.957031 269.039062 422.609375 268.609375 C 425.992188 267.726562 428.40625 268.617188 428.40625 270.746094 C 428.40625 272.574219 427.613281 273.035156 422.746094 274.027344 C 419.394531 274.714844 417.003906 275.625 415.730469 276.703125 C 415.363281 277.015625 414.773438 277.800781 414.421875 278.445312 C 413.890625 279.421875 413.765625 279.945312 413.691406 281.515625 C 413.441406 286.691406 416.359375 289.644531 421.71875 289.644531 C 424.78125 289.644531 426.953125 288.636719 428.148438 286.664062 C 428.472656 286.128906 428.816406 285.691406 428.910156 285.6875 C 429.003906 285.683594 429.183594 285.949219 429.308594 286.285156 C 429.691406 287.292969 430.585938 288.300781 431.558594 288.820312 C 432.339844 289.238281 432.816406 289.3125 434.683594 289.308594 C 436.300781 289.304688 437.066406 289.203125 437.558594 288.941406 L 438.226562 288.578125 L 438 286.300781 L 437.769531 284.027344 L 436.652344 284.097656 C 434.859375 284.214844 434.921875 284.484375 434.792969 276.121094 C 434.683594 268.835938 434.683594 268.828125 434.113281 267.605469 C 433.796875 266.9375 433.234375 266.039062 432.859375 265.613281 C 430.964844 263.453125 426.535156 262.503906 422.128906 263.316406 M 662.179688 263.882812 C 657.230469 264.753906 653.527344 268.554688 652.808594 273.511719 C 652.382812 276.429688 653.097656 279.171875 654.960938 281.765625 C 655.617188 282.679688 655.6875 282.890625 655.445312 283.222656 C 655.292969 283.433594 648.792969 291.792969 641.003906 301.792969 L 626.84375 319.976562 L 625.585938 319.679688 C 622.355469 318.921875 618.4375 319.875 616.003906 322.011719 L 615.296875 322.632812 L 603.816406 313.515625 L 592.332031 304.402344 L 592.898438 303.023438 C 593.707031 301.058594 593.839844 297.773438 593.195312 295.648438 C 591.671875 290.640625 586.976562 287.382812 581.753906 287.710938 C 575.398438 288.113281 570.777344 293.304688 571.210938 299.554688 C 571.28125 300.585938 571.367188 301.613281 571.402344 301.839844 C 571.449219 302.144531 568.664062 304.746094 561.003906 311.546875 L 550.542969 320.839844 L 549.539062 319.808594 C 547.460938 317.671875 544.890625 316.648438 541.621094 316.648438 C 538.539062 316.648438 536.285156 317.480469 533.988281 319.464844 C 530.355469 322.605469 529.3125 328.722656 531.660156 333.128906 C 532.625 334.941406 534.847656 337.015625 536.886719 338.011719 L 538.648438 338.871094 L 544.59375 338.871094 L 546.253906 338.042969 C 548.269531 337.035156 549.890625 335.652344 550.980469 334.015625 C 552.199219 332.179688 552.683594 330.617188 552.832031 328.046875 L 552.964844 325.8125 L 563.640625 316.324219 L 574.3125 306.839844 L 574.980469 307.378906 C 576.976562 308.984375 579.246094 309.890625 581.714844 310.066406 C 583.710938 310.207031 585.273438 309.90625 587.253906 308.992188 L 588.726562 308.3125 L 600.03125 317.289062 C 606.246094 322.226562 611.566406 326.488281 611.847656 326.757812 C 612.355469 327.238281 612.359375 327.277344 612.082031 328.917969 C 611.265625 333.769531 613.804688 338.5 618.453125 340.804688 C 620.203125 341.671875 620.441406 341.730469 622.566406 341.808594 C 624.238281 341.871094 625.15625 341.796875 626.117188 341.519531 C 631.625 339.929688 635.175781 334.652344 634.390625 329.222656 C 634.113281 327.292969 633.28125 325.246094 632.191406 323.820312 C 631.789062 323.296875 631.492188 322.78125 631.53125 322.679688 C 631.566406 322.578125 637.988281 314.296875 645.804688 304.273438 C 653.617188 294.25 660.058594 285.980469 660.121094 285.898438 C 660.179688 285.8125 661.121094 285.890625 662.214844 286.074219 C 664.742188 286.5 666.597656 286.230469 668.90625 285.097656 C 674.28125 282.46875 676.710938 275.957031 674.324219 270.566406 C 672.277344 265.929688 667.011719 263.035156 662.179688 263.882812 M 144.25 269.488281 C 143.019531 269.882812 141.324219 271.332031 140.730469 272.496094 C 140.488281 272.96875 139.097656 276.796875 137.636719 281.003906 C 127.792969 309.367188 125.769531 315.3125 125.769531 315.875 C 125.769531 317.222656 126.503906 317.621094 133.039062 319.820312 C 136.371094 320.941406 139.320312 321.945312 139.589844 322.046875 L 140.085938 322.230469 L 139.316406 323.628906 C 137.09375 327.671875 136.902344 331.175781 138.714844 334.652344 C 140.265625 337.621094 143.042969 339.726562 146.300781 340.394531 C 148.367188 340.820312 149.484375 340.824219 151.195312 340.417969 C 155.550781 339.375 158.359375 336.261719 159.429688 331.28125 C 159.648438 330.261719 159.929688 329.394531 160.054688 329.351562 C 160.269531 329.28125 170.4375 332.695312 170.65625 332.914062 C 170.710938 332.96875 169.597656 336.378906 168.175781 340.492188 C 165.382812 348.566406 165.324219 348.882812 166.453125 349.773438 C 167.160156 350.324219 167.429688 350.324219 169.644531 349.75 C 171.835938 349.183594 172.894531 349.285156 174.707031 350.253906 C 176.292969 351.101562 177.375 352.304688 177.96875 353.894531 C 179.15625 357.066406 177.929688 360.566406 175.015625 362.308594 C 173.980469 362.929688 173.484375 363.074219 172.152344 363.160156 C 169.351562 363.339844 167.179688 362.273438 165.726562 360 C 164.878906 358.675781 164.164062 358.261719 163.085938 358.464844 C 162.019531 358.664062 161.582031 359.355469 160.511719 362.550781 C 159.960938 364.183594 158.660156 367.984375 157.617188 370.992188 C 156.578125 374 155.726562 376.804688 155.726562 377.222656 C 155.726562 377.75 155.890625 378.144531 156.261719 378.484375 C 156.714844 378.902344 174.261719 385.101562 197.246094 392.960938 C 199.46875 393.722656 200.082031 393.847656 201.125 393.757812 C 203.488281 393.558594 205.328125 392.371094 206.257812 390.457031 C 206.5625 389.828125 209.382812 381.878906 212.519531 372.792969 C 215.660156 363.707031 222.152344 344.921875 226.945312 331.050781 C 231.742188 317.179688 235.730469 305.417969 235.808594 304.910156 C 236.117188 302.933594 234.898438 300.261719 233.203125 299.191406 C 231.816406 298.316406 147.9375 269.359375 146.472656 269.253906 C 145.761719 269.199219 144.84375 269.296875 144.25 269.488281 M 661.296875 269.8125 C 659.171875 270.882812 658.085938 272.636719 658.085938 275 C 658.082031 278.375 660.613281 280.90625 664 280.914062 C 667.328125 280.921875 669.871094 278.339844 669.851562 274.976562 C 669.84375 273.289062 669.304688 271.964844 668.175781 270.867188 C 667.003906 269.734375 665.96875 269.300781 664.195312 269.207031 C 662.820312 269.136719 662.507812 269.203125 661.296875 269.8125 M 145.613281 273.542969 C 145.320312 273.621094 144.902344 273.929688 144.683594 274.230469 C 144.316406 274.734375 130.523438 314.292969 130.667969 314.4375 C 130.703125 314.472656 133.949219 315.597656 137.886719 316.941406 C 141.824219 318.285156 145.261719 319.496094 145.527344 319.632812 C 145.796875 319.769531 146.171875 320.21875 146.367188 320.628906 C 146.925781 321.800781 146.515625 322.710938 144.957031 323.769531 C 143.550781 324.722656 142.757812 325.664062 142.246094 326.976562 C 141.683594 328.4375 141.589844 329.726562 141.953125 331.105469 C 142.550781 333.390625 143.773438 334.824219 145.992188 335.847656 C 146.988281 336.300781 147.421875 336.371094 148.855469 336.300781 C 153.660156 336.074219 156.59375 331.796875 155.078125 327.238281 C 154.617188 325.859375 154.613281 325.746094 154.957031 325.023438 C 155.171875 324.570312 155.621094 324.113281 156.066406 323.902344 C 156.808594 323.550781 156.832031 323.554688 164.210938 326.089844 C 168.277344 327.488281 171.734375 328.628906 171.886719 328.628906 C 172.054688 328.628906 172.886719 326.550781 173.972656 323.398438 C 174.964844 320.519531 175.773438 318.09375 175.773438 318 C 175.769531 317.910156 175.445312 317.835938 175.054688 317.835938 C 173.8125 317.832031 171.019531 317.054688 169.902344 316.402344 C 167.460938 314.96875 165.488281 312.375 164.617188 309.4375 C 164.21875 308.09375 164.175781 305.292969 164.539062 303.9375 C 165.9375 298.6875 171.667969 294.777344 176.769531 295.59375 C 178.472656 295.863281 179.597656 296.285156 181.347656 297.304688 C 182.054688 297.71875 182.664062 298.019531 182.703125 297.980469 C 182.84375 297.835938 186.339844 287.621094 186.339844 287.367188 C 186.335938 287.226562 178.679688 284.457031 169.324219 281.21875 C 144.75 272.707031 146.550781 273.289062 145.613281 273.542969 M 380.761719 277.003906 C 380.417969 277.1875 379.179688 277.542969 378.007812 277.792969 C 374.386719 278.566406 373.484375 279.332031 373.472656 281.652344 C 373.464844 283.640625 374.796875 284.800781 377.085938 284.792969 C 380.296875 284.78125 381.933594 282.648438 381.933594 278.480469 C 381.933594 276.492188 381.863281 276.40625 380.761719 277.003906 M 427.46875 276.996094 C 427.136719 277.175781 425.757812 277.570312 424.40625 277.867188 C 421.625 278.484375 420.667969 279.046875 420.25 280.304688 C 419.703125 281.957031 420.347656 283.652344 421.816406 284.425781 C 423.019531 285.058594 425.257812 284.863281 426.453125 284.019531 C 427.890625 283.011719 428.433594 281.707031 428.574219 278.929688 C 428.703125 276.433594 428.65625 276.351562 427.46875 276.996094 M 616.492188 279.933594 C 615.96875 280.460938 615.847656 280.765625 615.847656 281.585938 C 615.847656 282.140625 615.933594 282.59375 616.042969 282.59375 C 616.296875 282.59375 629.5625 280.621094 629.796875 280.546875 C 629.898438 280.515625 629.714844 280.21875 629.382812 279.890625 L 628.785156 279.292969 L 617.136719 279.292969 Z M 622.511719 284.53125 L 615.847656 285.535156 L 615.847656 286.910156 C 615.847656 288.101562 615.898438 288.269531 616.234375 288.199219 C 616.445312 288.152344 619.394531 287.710938 622.785156 287.222656 C 626.179688 286.730469 629.226562 286.273438 629.558594 286.207031 C 630.136719 286.089844 630.164062 286.027344 630.164062 284.78125 C 630.164062 283.566406 630.128906 283.476562 629.667969 283.5 C 629.398438 283.511719 626.175781 283.976562 622.511719 284.53125 M 190.207031 289.601562 C 184.929688 305.09375 185.09375 304.722656 183.457031 304.722656 C 182.480469 304.722656 182.335938 304.59375 180.574219 302.230469 C 178.234375 299.089844 172.976562 299.03125 170.269531 302.113281 C 169.125 303.417969 168.652344 304.71875 168.632812 306.613281 C 168.617188 308.0625 168.707031 308.464844 169.328125 309.722656 C 170.886719 312.886719 174.75 314.390625 177.945312 313.078125 C 179.457031 312.453125 180.621094 312.863281 181.183594 314.210938 C 181.472656 314.90625 181.382812 315.230469 178.851562 322.484375 C 177.402344 326.636719 176.257812 330.074219 176.304688 330.121094 C 176.417969 330.230469 186.832031 333.902344 187.058594 333.910156 C 187.148438 333.914062 187.222656 333.492188 187.222656 332.972656 C 187.222656 329.429688 189.621094 325.566406 192.894531 323.828125 C 197.398438 321.4375 202.074219 321.902344 205.550781 325.085938 C 209.929688 329.09375 210.703125 334.71875 207.5625 339.695312 C 207.257812 340.179688 207.089844 340.648438 207.191406 340.742188 C 207.570312 341.082031 217.695312 344.496094 217.839844 344.332031 C 218.253906 343.851562 231.503906 304.863281 231.5 304.140625 C 231.492188 303.167969 230.933594 302.652344 229.152344 301.984375 C 228.488281 301.738281 219.796875 298.71875 209.839844 295.277344 C 199.882812 291.832031 191.472656 288.917969 191.148438 288.792969 C 190.582031 288.574219 190.546875 288.605469 190.207031 289.601562 M 623.082031 290.054688 C 619.363281 290.617188 616.269531 291.132812 616.199219 291.203125 C 616.128906 291.273438 616.324219 291.570312 616.636719 291.863281 C 617.199219 292.394531 617.238281 292.398438 622.566406 292.460938 C 628.703125 292.539062 629.285156 292.429688 629.84375 291.089844 C 630.183594 290.277344 630.28125 288.964844 630 289.007812 C 629.910156 289.023438 626.796875 289.492188 623.082031 290.054688 M 580.527344 293.269531 C 576.335938 294.765625 575.101562 299.964844 578.199219 303.0625 C 580.574219 305.4375 584.167969 305.417969 586.527344 303.023438 C 588.242188 301.28125 588.746094 299.140625 587.980469 296.882812 C 586.980469 293.945312 583.441406 292.230469 580.527344 293.269531 M 619.59375 295.671875 C 619.59375 295.835938 619.855469 296.230469 620.171875 296.550781 C 620.722656 297.097656 620.875 297.132812 622.898438 297.132812 C 625.195312 297.132812 626 296.816406 626.261719 295.816406 C 626.375 295.382812 626.285156 295.371094 622.984375 295.371094 C 620.269531 295.371094 619.59375 295.429688 619.59375 295.671875 M 651.859375 317.480469 C 651.496094 317.644531 651.003906 318 650.757812 318.269531 C 650.324219 318.761719 650.320312 319.15625 650.210938 369.34375 L 650.097656 419.925781 L 637.214844 420.042969 L 637.214844 395.695312 C 637.214844 369.253906 637.265625 370.410156 636 369.414062 C 635.394531 368.9375 635.371094 368.9375 623.226562 368.9375 C 611.082031 368.9375 611.0625 368.9375 610.457031 369.414062 C 609.1875 370.410156 609.242188 369.253906 609.242188 395.695312 L 609.242188 420.042969 L 602.796875 419.984375 L 596.355469 419.925781 L 596.136719 335.863281 L 595.414062 335.21875 L 594.695312 334.578125 L 570.140625 334.578125 L 569.523438 335.148438 C 569.183594 335.464844 568.8125 335.964844 568.699219 336.265625 C 568.574219 336.597656 568.492188 353.046875 568.492188 378.421875 L 568.492188 420.039062 L 555.496094 420.039062 L 555.492188 391.128906 C 555.492188 368.621094 555.429688 362.101562 555.21875 361.691406 C 555.070312 361.398438 554.667969 360.953125 554.324219 360.699219 C 553.714844 360.246094 553.484375 360.234375 542.101562 360.167969 C 534.304688 360.125 530.230469 360.179688 529.6875 360.339844 C 529.242188 360.46875 528.625 360.878906 528.3125 361.25 L 527.746094 361.921875 L 527.746094 420.039062 L 516.59375 420.039062 L 515.898438 420.71875 C 514.691406 421.898438 514.746094 423.667969 516.019531 424.671875 C 516.566406 425.097656 517.386719 425.101562 601.726562 425.097656 C 668.324219 425.089844 686.957031 425.03125 687.222656 424.820312 C 687.925781 424.265625 688.3125 423.441406 688.3125 422.5 C 688.3125 421.695312 688.1875 421.410156 687.566406 420.785156 L 686.816406 420.039062 L 677.960938 420.039062 L 677.960938 369.8125 C 677.960938 315.140625 678.042969 318.609375 676.726562 317.714844 C 676.117188 317.304688 675.589844 317.285156 664.304688 317.234375 C 654.839844 317.195312 652.390625 317.242188 651.859375 317.480469 M 540.257812 322.027344 C 539.074219 322.320312 537.402344 323.429688 536.808594 324.320312 C 534.761719 327.359375 535.597656 331.144531 538.71875 332.980469 C 539.625 333.511719 539.976562 333.585938 541.621094 333.585938 C 543.265625 333.585938 543.617188 333.511719 544.523438 332.980469 C 547.851562 331.023438 548.554688 326.820312 546.039062 323.960938 C 544.597656 322.324219 542.234375 321.535156 540.257812 322.027344 M 655.496094 371.136719 L 655.496094 419.816406 L 672.675781 419.816406 L 672.566406 322.574219 L 655.496094 322.457031 Z M 621.683594 324.917969 C 618.910156 325.5625 616.84375 328.828125 617.390625 331.703125 C 617.660156 333.128906 618.078125 333.929688 619.058594 334.878906 C 620.171875 335.960938 621.242188 336.414062 622.933594 336.515625 C 626.363281 336.726562 629.089844 334.164062 629.089844 330.738281 C 629.089844 329.191406 628.789062 328.308594 627.785156 326.945312 C 626.605469 325.34375 623.824219 324.417969 621.683594 324.917969 M 195.722656 327.191406 C 194.144531 327.839844 192.886719 329.023438 192.195312 330.5 C 191.382812 332.25 191.308594 333.386719 191.875 335.691406 C 192.332031 337.554688 192.34375 337.738281 192.015625 338.285156 C 191.820312 338.613281 191.296875 338.996094 190.832031 339.15625 C 189.816406 339.5 189.457031 339.402344 180.96875 336.414062 C 177.710938 335.269531 174.96875 334.410156 174.875 334.507812 C 174.746094 334.644531 171.144531 344.835938 171.144531 345.066406 C 171.144531 345.09375 171.714844 345.230469 172.410156 345.367188 C 177 346.273438 179.972656 348.234375 181.449219 351.328125 C 182.320312 353.15625 182.585938 354.328125 182.589844 356.382812 C 182.59375 358.953125 181.929688 360.972656 180.421875 362.980469 C 177.007812 367.523438 171.804688 368.628906 166.378906 365.964844 C 165.304688 365.4375 164.355469 365.070312 164.273438 365.152344 C 163.96875 365.453125 160.582031 375.644531 160.738281 375.789062 C 160.902344 375.941406 198.8125 389.089844 200.1875 389.46875 C 201.265625 389.769531 202.089844 389.351562 202.613281 388.242188 C 203.0625 387.289062 216.296875 349.082031 216.296875 348.742188 C 216.296875 348.636719 215.378906 348.238281 214.257812 347.859375 C 204.527344 344.574219 201.183594 343.332031 200.835938 342.882812 C 199.851562 341.605469 200.277344 340.351562 202.082031 339.222656 C 203.585938 338.277344 204.523438 336.984375 204.972656 335.238281 C 206.378906 329.746094 200.960938 325.039062 195.722656 327.191406 M 115.871094 328.023438 C 115.460938 328.234375 103.253906 342.117188 98.890625 347.332031 L 98.257812 348.085938 L 97.339844 347.449219 C 96.023438 346.539062 94.292969 346.480469 90.5 347.214844 C 86.292969 348.03125 75.296875 350.597656 75.109375 350.808594 C 74.804688 351.152344 64.84375 362.90625 63.199219 364.863281 C 60.425781 368.160156 57.726562 371.832031 57.011719 373.28125 C 56.382812 374.550781 56.347656 374.757812 56.492188 376.144531 C 56.871094 379.746094 58.296875 386.527344 61.976562 402.195312 C 63.242188 407.585938 64.242188 412.035156 64.199219 412.078125 C 64.15625 412.125 62.660156 412.492188 60.878906 412.902344 C 59.097656 413.3125 57.605469 413.679688 57.5625 413.722656 C 57.523438 413.765625 57.464844 416.222656 57.433594 419.183594 C 57.359375 426.382812 57.128906 426.039062 62.386719 426.414062 C 67.675781 426.785156 84.648438 427.140625 89.363281 426.972656 C 94.535156 426.792969 95.078125 426.636719 95.566406 425.214844 C 95.773438 424.609375 95.902344 422.703125 95.976562 419.15625 L 96.085938 413.980469 L 92.453125 412.339844 L 92.605469 411.398438 C 93.367188 406.757812 93.652344 404.070312 93.8125 400.105469 C 93.941406 396.953125 94.105469 395.195312 94.332031 394.589844 C 94.882812 393.097656 96.320312 390.375 98.683594 386.335938 C 103.78125 377.632812 104.761719 375.023438 103.972656 372.265625 C 103.773438 371.578125 103.785156 371.546875 104.136719 371.855469 C 111.769531 378.488281 119.617188 385.113281 120.027344 385.269531 C 120.320312 385.382812 120.835938 385.414062 121.175781 385.339844 C 121.765625 385.210938 122.335938 384.609375 127.5 378.691406 L 128.886719 377.097656 L 130.101562 378.410156 C 132.304688 380.789062 135.109375 381.734375 138.300781 381.179688 C 141.449219 380.628906 143.71875 378.976562 144.953125 376.339844 C 146.097656 373.898438 146.171875 370.5 145.132812 368.34375 C 144.523438 367.070312 142.804688 365.199219 141.488281 364.367188 C 140.960938 364.035156 140.527344 363.710938 140.527344 363.652344 C 140.527344 363.589844 141.976562 361.855469 143.75 359.796875 C 145.519531 357.738281 147.109375 355.722656 147.28125 355.316406 C 147.855469 353.984375 147.761719 353.882812 139.867188 347.144531 C 136.03125 343.867188 135.351562 343.464844 134.261719 343.824219 C 133.476562 344.082031 133.109375 344.726562 132.507812 346.925781 C 132.042969 348.609375 131.347656 349.558594 130.058594 350.265625 C 127.394531 351.726562 124.003906 350.410156 123.15625 347.589844 C 122.242188 344.539062 124.011719 341.660156 127.160156 341.066406 C 128.945312 340.734375 129.542969 339.503906 128.6875 337.9375 C 128.371094 337.359375 120.546875 330.347656 118.171875 328.511719 C 117.304688 327.84375 116.535156 327.679688 115.871094 328.023438 M 106.378906 345.160156 C 100.628906 351.828125 95.835938 357.515625 95.726562 357.800781 C 95.617188 358.082031 95.585938 358.46875 95.660156 358.65625 C 95.789062 358.992188 99.570312 362.355469 104.785156 366.769531 C 106.265625 368.023438 110.320312 371.511719 113.789062 374.527344 C 117.261719 377.542969 120.230469 380.019531 120.386719 380.035156 C 120.636719 380.058594 125.84375 374.222656 127.441406 372.125 C 129.039062 370.03125 131.363281 370.40625 131.820312 372.835938 C 132.167969 374.683594 133.53125 376.339844 135.144531 376.871094 C 136.378906 377.277344 138.394531 377.027344 139.4375 376.332031 C 140.816406 375.421875 141.492188 374.207031 141.589844 372.464844 C 141.6875 370.730469 141.246094 369.640625 139.996094 368.542969 C 139.28125 367.917969 138.042969 367.402344 137.222656 367.394531 C 137.042969 367.390625 136.382812 367.152344 135.753906 366.859375 C 134.464844 366.261719 134.292969 365.855469 134.707031 364.390625 C 134.898438 363.710938 135.90625 362.382812 138.625 359.238281 C 140.640625 356.910156 142.285156 354.941406 142.277344 354.867188 C 142.257812 354.710938 136.675781 349.921875 136.40625 349.832031 C 136.304688 349.796875 136.039062 350.117188 135.8125 350.535156 C 135.152344 351.761719 133.226562 353.578125 131.90625 354.222656 C 128.679688 355.800781 124.476562 355.328125 121.773438 353.089844 C 119.859375 351.5 118.636719 348.597656 118.648438 345.671875 C 118.660156 343.257812 119.453125 341.511719 121.457031 339.511719 L 122.875 338.089844 L 119.941406 335.5625 C 118.328125 334.171875 116.96875 333.035156 116.921875 333.035156 C 116.875 333.035156 112.128906 338.492188 106.378906 345.160156 M 573.777344 379.839844 L 573.777344 419.816406 L 590.960938 419.816406 L 590.960938 339.863281 L 573.777344 339.863281 Z M 87.886719 351.648438 C 83.824219 352.519531 80.222656 353.527344 78.601562 354.25 C 76.964844 354.976562 75.113281 356.996094 64.730469 369.378906 L 60.203125 374.773438 L 64.589844 393.605469 C 67.003906 403.964844 68.996094 412.453125 69.015625 412.476562 C 69.035156 412.496094 73.320312 412.585938 78.539062 412.671875 L 88.019531 412.832031 L 88.5 410.652344 C 89.523438 405.988281 89.992188 401.050781 89.769531 397.242188 C 89.554688 393.535156 89.722656 393.101562 94.375 385.347656 C 98.148438 379.054688 98.765625 377.929688 99.441406 376.140625 C 100.429688 373.507812 100.015625 371.953125 98.089844 371.101562 C 95.597656 369.996094 93.8125 371.695312 88.09375 380.625 C 86.59375 382.960938 84.835938 385.449219 84.183594 386.152344 C 83.121094 387.300781 82.808594 387.492188 81.203125 388.007812 C 80.214844 388.320312 78.648438 388.632812 77.71875 388.699219 C 76.253906 388.804688 75.894531 388.753906 74.976562 388.308594 C 73.355469 387.523438 72.328125 386.472656 71.796875 385.054688 C 71.351562 383.867188 69.609375 376.863281 69.605469 376.242188 C 69.605469 376.082031 71.789062 372.355469 74.460938 367.960938 L 79.320312 359.972656 L 80.683594 359.597656 C 90.339844 356.957031 91.59375 356.558594 91.710938 356.085938 C 91.777344 355.824219 92.671875 354.621094 93.695312 353.410156 C 95.210938 351.617188 95.488281 351.179688 95.191406 351.054688 C 94.289062 350.6875 91.183594 350.9375 87.886719 351.648438 M 86.816406 362.453125 C 84.109375 363.097656 81.863281 363.652344 81.832031 363.691406 C 81.527344 364.035156 75.429688 374.007812 74.863281 375.089844 C 74.222656 376.3125 74.117188 376.722656 74.117188 378.0625 C 74.117188 379.996094 75.097656 383.179688 75.980469 384.125 C 76.710938 384.902344 77.929688 385.179688 78.886719 384.78125 C 80.261719 384.214844 83.035156 380.867188 85.902344 376.316406 C 87.871094 373.1875 90.453125 369.691406 91.710938 368.445312 L 93 367.164062 L 92.847656 366.125 C 92.707031 365.1875 91.859375 361.378906 91.773438 361.308594 C 91.753906 361.292969 89.523438 361.808594 86.816406 362.453125 M 533.03125 392.613281 L 533.03125 419.816406 L 550.210938 419.816406 L 550.210938 365.414062 L 533.03125 365.414062 Z M 614.746094 397.019531 L 614.746094 419.816406 L 631.707031 419.816406 L 631.707031 374.222656 L 614.746094 374.222656 Z M 148.585938 435.234375 C 147.675781 435.523438 146.503906 436.734375 146.21875 437.683594 C 145.34375 440.605469 147.921875 443.21875 150.988281 442.515625 C 152.863281 442.085938 153.960938 440.753906 153.960938 438.902344 C 153.964844 436.71875 152.550781 435.21875 150.371094 435.09375 C 149.742188 435.058594 148.941406 435.121094 148.585938 435.234375 M 186.03125 435.234375 C 185.121094 435.523438 183.949219 436.734375 183.664062 437.683594 C 182.789062 440.605469 185.367188 443.21875 188.433594 442.515625 C 190.308594 442.085938 191.40625 440.753906 191.40625 438.902344 C 191.410156 436.71875 189.996094 435.21875 187.816406 435.09375 C 187.1875 435.058594 186.382812 435.121094 186.03125 435.234375 M 56.828125 454.28125 L 56.828125 471.390625 L 65.035156 471.304688 C 72.632812 471.226562 73.367188 471.183594 75 470.738281 C 82.722656 468.628906 86.445312 462.714844 86.046875 453.1875 C 85.679688 444.316406 81.65625 439.308594 73.570312 437.652344 C 72.882812 437.511719 68.976562 437.351562 64.59375 437.285156 L 56.828125 437.167969 Z M 526.863281 454.265625 L 526.863281 471.359375 L 533.691406 471.359375 L 533.691406 458.863281 L 538.152344 458.738281 C 541.125 458.65625 543.007812 458.503906 543.792969 458.28125 C 548.121094 457.058594 550.730469 454.140625 551.359375 449.8125 C 552.058594 445.011719 549.984375 440.519531 546.21875 438.679688 C 543.683594 437.441406 543.234375 437.386719 534.738281 437.277344 L 526.863281 437.175781 Z M 586.390625 440.148438 L 583.691406 440.605469 L 583.691406 445.585938 L 579.726562 445.585938 L 579.726562 450.875 L 583.691406 450.875 L 583.691406 457.976562 C 583.695312 465.269531 583.796875 466.34375 584.640625 467.972656 C 585.988281 470.578125 588.394531 471.796875 592.1875 471.796875 C 594.332031 471.796875 596.378906 471.316406 597.703125 470.503906 L 598.386719 470.078125 L 597.589844 467.761719 C 597.152344 466.488281 596.722656 465.375 596.636719 465.289062 C 596.550781 465.199219 595.960938 465.351562 595.332031 465.625 C 594.445312 466.003906 593.886719 466.097656 592.902344 466.027344 C 591.410156 465.917969 590.644531 465.351562 590.300781 464.105469 C 590.179688 463.671875 590.078125 460.535156 590.078125 457.097656 L 590.078125 450.875 L 597.347656 450.875 L 597.347656 445.585938 L 590.078125 445.585938 L 590.078125 442.613281 C 590.078125 439.140625 590.542969 439.449219 586.390625 440.148438 M 606.378906 440.160156 L 603.625 440.632812 L 603.5 445.570312 L 601.578125 445.632812 L 599.660156 445.699219 L 599.597656 448.285156 L 599.535156 450.875 L 603.515625 450.875 L 603.515625 457.5625 C 603.515625 461.238281 603.613281 464.777344 603.734375 465.417969 C 604.246094 468.105469 605.671875 470.046875 607.917969 471.113281 C 609.03125 471.640625 609.363281 471.6875 611.992188 471.6875 C 615.085938 471.6875 616.488281 471.375 617.675781 470.421875 L 618.292969 469.925781 L 617.457031 467.558594 C 616.996094 466.257812 616.515625 465.191406 616.390625 465.191406 C 616.265625 465.191406 615.773438 465.390625 615.296875 465.632812 C 614.242188 466.167969 612.359375 466.214844 611.414062 465.726562 C 610.207031 465.101562 610.121094 464.558594 610.121094 457.378906 L 610.121094 450.875 L 617.390625 450.875 L 617.390625 445.585938 L 610.121094 445.585938 L 610.121094 442.613281 C 610.121094 439.132812 610.585938 439.441406 606.378906 440.160156 M 533.691406 447.988281 L 533.691406 453.296875 L 537.050781 453.296875 C 540.636719 453.292969 541.570312 453.140625 542.75 452.355469 C 544.203125 451.386719 544.964844 448.886719 544.488281 446.605469 C 544.164062 445.042969 543.496094 444.070312 542.273438 443.386719 C 541.351562 442.867188 541.058594 442.828125 537.492188 442.757812 L 533.691406 442.679688 Z M 63.65625 454.277344 L 63.65625 465.679688 L 67.785156 465.578125 C 71.304688 465.488281 72.113281 465.402344 73.238281 464.996094 C 77.078125 463.605469 78.785156 460.765625 79.015625 455.390625 C 79.210938 450.851562 78.480469 447.960938 76.636719 445.941406 C 74.695312 443.820312 72.792969 443.210938 67.457031 443.015625 L 63.65625 442.875 Z M 100.441406 445.492188 C 95.882812 446.472656 92.425781 450 91.386719 454.726562 C 90.972656 456.609375 91.03125 460.996094 91.492188 462.769531 C 92.609375 467.054688 95.019531 469.730469 99.054688 471.167969 C 99.980469 471.5 101.089844 471.65625 103.109375 471.738281 C 107.585938 471.925781 110.097656 471.136719 112.417969 468.816406 C 113.609375 467.625 114.703125 465.875 114.390625 465.664062 C 112.640625 464.496094 110.136719 462.988281 109.941406 462.988281 C 109.804688 462.988281 109.691406 463.070312 109.691406 463.167969 C 109.691406 463.269531 109.332031 463.765625 108.898438 464.277344 C 107.769531 465.597656 106.617188 466.125 104.605469 466.246094 C 102.34375 466.378906 100.707031 465.898438 99.574219 464.765625 C 98.679688 463.871094 97.796875 461.890625 97.796875 460.777344 L 97.796875 460.125 L 105.90625 460.125 C 112.308594 460.125 114.097656 460.0625 114.414062 459.832031 C 114.777344 459.5625 114.804688 459.257812 114.699219 456.363281 C 114.609375 453.855469 114.484375 452.894531 114.097656 451.800781 C 112.820312 448.179688 110.148438 446.027344 106.121094 445.375 C 104.261719 445.074219 102.179688 445.117188 100.441406 445.492188 M 128.414062 445.492188 C 123.730469 446.5 120.277344 450.003906 119.269531 454.769531 C 118.855469 456.707031 118.859375 460.253906 119.273438 462.210938 C 120.03125 465.777344 122.210938 468.828125 125.09375 470.34375 C 127.0625 471.378906 128.917969 471.792969 131.617188 471.796875 C 135.300781 471.800781 137.652344 470.933594 139.753906 468.796875 C 140.792969 467.746094 142.296875 465.257812 142.289062 464.609375 C 142.285156 464.410156 137.792969 461.886719 137.441406 461.886719 C 137.328125 461.886719 137.019531 462.386719 136.757812 462.996094 C 136.167969 464.371094 134.703125 465.699219 133.367188 466.074219 C 131.871094 466.492188 129.75 466.253906 128.515625 465.527344 C 126.523438 464.363281 125.65625 462.167969 125.675781 458.363281 C 125.691406 455.582031 126.144531 453.929688 127.253906 452.636719 C 128.417969 451.273438 129.527344 450.789062 131.496094 450.777344 C 134.035156 450.765625 135.496094 451.65625 136.910156 454.078125 C 137.125 454.449219 137.347656 454.34375 139.488281 452.84375 C 140.777344 451.941406 141.835938 451.09375 141.839844 450.964844 C 141.859375 450.433594 140.050781 447.988281 139.160156 447.335938 C 136.542969 445.414062 132.214844 444.671875 128.414062 445.492188 M 165.902344 445.46875 C 162.882812 446.15625 160.777344 447.652344 159.695312 449.882812 C 158.957031 451.398438 158.921875 454.441406 159.621094 455.972656 C 160.714844 458.378906 162.867188 459.691406 167.648438 460.867188 C 170.609375 461.59375 171.71875 462.023438 172.214844 462.625 C 172.691406 463.195312 172.761719 464.40625 172.363281 465.175781 C 171.816406 466.230469 170.777344 466.582031 168.503906 466.46875 C 166.195312 466.355469 164.574219 465.679688 163.109375 464.21875 C 162.554688 463.664062 161.972656 463.207031 161.8125 463.207031 C 161.652344 463.207031 160.757812 464.050781 159.820312 465.078125 C 158.554688 466.472656 158.152344 467.058594 158.25 467.367188 C 158.484375 468.109375 160.550781 469.835938 161.957031 470.46875 C 163.980469 471.378906 166.160156 471.796875 168.878906 471.796875 C 172.796875 471.796875 175.191406 470.902344 177.175781 468.695312 C 179.683594 465.90625 179.664062 461.15625 177.136719 458.628906 C 175.929688 457.421875 174.296875 456.6875 171.121094 455.925781 C 166.722656 454.867188 166.527344 454.804688 165.847656 454.167969 C 165.332031 453.6875 165.195312 453.375 165.195312 452.65625 C 165.195312 451.042969 166.277344 450.402344 168.996094 450.410156 C 170.375 450.414062 170.972656 450.53125 172.011719 450.996094 C 172.726562 451.316406 173.535156 451.816406 173.808594 452.109375 C 174.082031 452.398438 174.425781 452.636719 174.574219 452.636719 C 174.722656 452.636719 175.613281 451.789062 176.554688 450.753906 L 178.261719 448.875 L 177.511719 448.09375 C 176.53125 447.074219 175.199219 446.300781 173.503906 445.765625 C 171.675781 445.191406 167.789062 445.039062 165.902344 445.46875 M 206.054688 445.496094 C 201.382812 446.539062 198.023438 449.96875 197.023438 454.726562 C 196.601562 456.75 196.605469 460.164062 197.039062 462.253906 C 198.046875 467.128906 201.136719 470.371094 205.832031 471.480469 C 207.589844 471.894531 211.238281 471.886719 212.890625 471.464844 C 217.296875 470.339844 220.273438 467.328125 221.492188 462.769531 C 222.019531 460.789062 222.027344 456.347656 221.507812 454.398438 C 220.328125 449.957031 217.515625 446.929688 213.433594 445.707031 C 211.671875 445.179688 207.953125 445.074219 206.054688 445.496094 M 239.695312 445.488281 C 239.058594 445.660156 238.234375 445.957031 237.863281 446.148438 C 236.9375 446.628906 235.558594 447.90625 235.003906 448.804688 C 234.75 449.214844 234.453125 449.550781 234.339844 449.550781 C 234.230469 449.550781 234.136719 448.65625 234.136719 447.5625 L 234.136719 445.574219 L 231 445.636719 L 227.859375 445.699219 L 227.804688 458.527344 L 227.746094 471.359375 L 234.359375 471.359375 L 234.359375 463.988281 C 234.359375 459.378906 234.449219 456.1875 234.605469 455.453125 C 235.207031 452.617188 236.816406 451.054688 239.460938 450.746094 C 240.867188 450.578125 242.410156 450.945312 243.132812 451.609375 C 244.386719 452.761719 244.375 452.664062 244.449219 462.382812 L 244.515625 471.359375 L 250.878906 471.359375 L 250.875 461.941406 C 250.871094 450.527344 250.761719 449.785156 248.730469 447.539062 C 246.882812 445.496094 242.96875 444.605469 239.695312 445.488281 M 562.933594 445.375 C 561.359375 445.640625 559.71875 446.21875 558.246094 447.027344 C 556.867188 447.785156 554.835938 449.4375 554.835938 449.800781 C 554.835938 450.042969 557.4375 453.957031 557.597656 453.957031 C 557.65625 453.957031 558.253906 453.511719 558.921875 452.964844 C 561 451.273438 563.101562 450.441406 565.300781 450.4375 C 567.773438 450.433594 568.933594 451.253906 568.933594 453.007812 C 568.933594 454.746094 567.984375 455.257812 562.875 456.269531 C 559.894531 456.859375 557.527344 457.785156 556.257812 458.859375 C 555.890625 459.171875 555.300781 459.957031 554.945312 460.601562 C 554.417969 461.574219 554.292969 462.101562 554.214844 463.671875 C 553.96875 468.84375 556.886719 471.796875 562.246094 471.796875 C 565.304688 471.796875 567.476562 470.792969 568.675781 468.816406 C 569 468.285156 569.34375 467.84375 569.441406 467.839844 C 569.539062 467.835938 569.75 468.15625 569.914062 468.550781 C 570.375 469.644531 571.085938 470.441406 572.09375 470.980469 C 572.867188 471.390625 573.347656 471.46875 575.210938 471.460938 C 578.089844 471.453125 578.855469 471.109375 578.699219 469.875 C 578.644531 469.417969 578.527344 468.402344 578.445312 467.613281 L 578.292969 466.183594 L 577.179688 466.253906 C 575.382812 466.371094 575.445312 466.640625 575.320312 458.273438 L 575.210938 450.984375 L 574.628906 449.746094 C 573.453125 447.238281 571.535156 445.875 568.492188 445.382812 C 566.867188 445.117188 564.472656 445.117188 562.933594 445.375 M 630.164062 445.492188 C 625.609375 446.472656 622.148438 450 621.109375 454.726562 C 620.699219 456.609375 620.753906 460.996094 621.214844 462.769531 C 622.335938 467.054688 624.742188 469.730469 628.78125 471.167969 C 629.707031 471.5 630.816406 471.65625 632.835938 471.738281 C 637.3125 471.925781 639.824219 471.136719 642.140625 468.816406 C 643.335938 467.625 644.429688 465.875 644.113281 465.664062 C 642.363281 464.496094 639.863281 462.988281 639.667969 462.988281 C 639.53125 462.988281 639.417969 463.070312 639.417969 463.167969 C 639.417969 463.269531 639.058594 463.765625 638.621094 464.277344 C 637.492188 465.597656 636.339844 466.125 634.332031 466.246094 C 632.070312 466.378906 630.433594 465.898438 629.300781 464.765625 C 628.402344 463.871094 627.523438 461.890625 627.523438 460.777344 L 627.523438 460.125 L 635.628906 460.125 C 642.035156 460.125 643.820312 460.0625 644.140625 459.832031 C 644.503906 459.5625 644.53125 459.257812 644.425781 456.363281 C 644.335938 453.855469 644.207031 452.894531 643.824219 451.800781 C 642.546875 448.179688 639.875 446.027344 635.84375 445.375 C 633.988281 445.074219 631.902344 445.117188 630.164062 445.492188 M 682.476562 445.359375 C 680.433594 445.808594 678.652344 446.953125 677.511719 448.542969 C 677.113281 449.097656 676.703125 449.550781 676.601562 449.550781 C 676.503906 449.550781 676.421875 448.660156 676.421875 447.570312 L 676.421875 445.585938 L 670.253906 445.585938 L 670.253906 471.359375 L 676.605469 471.359375 L 676.691406 463.484375 C 676.792969 454.46875 676.871094 453.984375 678.46875 452.320312 C 680.675781 450.023438 685.054688 450.171875 686.253906 452.585938 C 686.628906 453.339844 686.667969 454.15625 686.726562 462.382812 L 686.789062 471.359375 L 693.414062 471.359375 L 693.324219 461.722656 C 693.226562 451.507812 693.1875 451.097656 692.101562 448.976562 C 691.4375 447.675781 689.683594 446.183594 688.28125 445.722656 C 686.914062 445.277344 683.753906 445.078125 682.476562 445.359375 M 661.382812 445.605469 C 659.550781 446.039062 658 447.242188 657.144531 448.894531 C 656.574219 450.003906 656.375 449.664062 656.375 447.5625 L 656.375 445.574219 L 653.238281 445.636719 L 650.097656 445.699219 L 650.042969 458.527344 L 649.984375 471.359375 L 656.566406 471.359375 L 656.648438 463.8125 C 656.71875 457.359375 656.789062 456.101562 657.121094 455.09375 C 657.585938 453.671875 658.964844 452.101562 660.058594 451.738281 C 661.050781 451.410156 663.335938 451.414062 664.179688 451.742188 C 665.109375 452.105469 665.273438 451.820312 665.851562 448.816406 C 666.417969 445.863281 666.460938 445.976562 664.679688 445.59375 C 663.453125 445.332031 662.542969 445.332031 661.382812 445.605469 M 146.839844 445.734375 C 146.761719 445.816406 146.695312 451.613281 146.695312 458.621094 L 146.695312 471.359375 L 153.300781 471.359375 L 153.300781 445.585938 L 150.144531 445.585938 C 148.410156 445.585938 146.921875 445.652344 146.839844 445.734375 M 184.285156 445.734375 C 184.203125 445.816406 184.140625 451.613281 184.140625 458.621094 L 184.140625 471.359375 L 190.746094 471.359375 L 190.746094 445.585938 L 187.589844 445.585938 C 185.851562 445.585938 184.367188 445.652344 184.285156 445.734375 M 101.632812 450.523438 C 101.140625 450.679688 100.417969 451.039062 100.027344 451.328125 C 99.332031 451.84375 98.191406 453.894531 97.921875 455.113281 L 97.789062 455.71875 L 108.640625 455.71875 L 108.492188 454.894531 C 108.140625 452.949219 107.855469 452.28125 107.050781 451.511719 C 105.773438 450.296875 103.617188 449.902344 101.632812 450.523438 M 631.359375 450.523438 C 630.863281 450.679688 630.140625 451.039062 629.753906 451.328125 C 629.054688 451.84375 627.914062 453.894531 627.648438 455.113281 L 627.515625 455.71875 L 638.363281 455.71875 L 638.214844 454.894531 C 637.867188 452.949219 637.582031 452.28125 636.773438 451.511719 C 635.496094 450.296875 633.34375 449.902344 631.359375 450.523438 M 207.445312 450.949219 C 205.128906 451.601562 203.917969 453.355469 203.488281 456.679688 C 203.300781 458.121094 203.300781 459.070312 203.484375 460.367188 C 204.097656 464.695312 206.082031 466.515625 209.894531 466.242188 C 212.746094 466.039062 214.390625 464.4375 214.984375 461.277344 C 215.324219 459.492188 215.140625 455.769531 214.648438 454.367188 C 214.171875 453.011719 212.992188 451.667969 211.878906 451.226562 C 210.625 450.722656 208.675781 450.601562 207.445312 450.949219 M 378.3125 458.417969 C 377.863281 458.8125 377.703125 459.234375 377.53125 460.492188 C 376.960938 464.617188 376.449219 497.179688 376.84375 503.925781 C 377.09375 508.175781 377.3125 509.4375 377.890625 510.015625 C 378.210938 510.335938 378.277344 510.332031 378.65625 509.988281 C 380.542969 508.28125 381.703125 493.824219 381.785156 471.027344 C 381.820312 460.925781 381.789062 459.957031 381.4375 459.3125 C 380.664062 457.898438 379.332031 457.515625 378.3125 458.417969 M 567.996094 459.148438 C 567.660156 459.332031 566.285156 459.722656 564.933594 460.023438 C 562.152344 460.636719 561.191406 461.199219 560.777344 462.460938 C 560.230469 464.113281 560.875 465.808594 562.339844 466.578125 C 563.546875 467.210938 565.785156 467.015625 566.984375 466.171875 C 568.453125 465.140625 568.984375 463.871094 569.109375 461.101562 C 569.21875 458.589844 569.175781 458.511719 567.996094 459.148438 M 599.21875 484.835938 C 597.371094 488.300781 593.308594 495.21875 590.695312 499.347656 C 574.042969 525.648438 550.632812 550.328125 524.921875 568.695312 C 516.175781 574.941406 504.503906 582.140625 497.496094 585.613281 C 495.191406 586.753906 486.597656 590.839844 485.484375 591.324219 L 484.746094 591.644531 L 485.429688 590.449219 C 486.222656 589.0625 486.292969 588.273438 485.675781 587.65625 C 485.132812 587.113281 484.539062 587.09375 483.960938 587.601562 C 483.378906 588.113281 480.167969 594.222656 480.167969 594.824219 C 480.167969 595.710938 480.917969 596.054688 484.507812 596.816406 C 486.421875 597.222656 488.160156 597.558594 488.371094 597.5625 C 488.96875 597.570312 489.640625 596.757812 489.640625 596.03125 C 489.640625 595.21875 489.113281 594.867188 487.363281 594.496094 C 486.660156 594.347656 486.113281 594.195312 486.152344 594.15625 C 486.246094 594.074219 495.3125 589.847656 496.957031 589.121094 C 497.648438 588.816406 499.480469 587.851562 501.03125 586.976562 C 514.082031 579.601562 525.25 572.257812 535.125 564.558594 C 555.945312 548.320312 575.226562 527.605469 589.789062 505.820312 C 594.460938 498.828125 600.691406 488.410156 603.378906 483.085938 L 603.960938 481.929688 L 602.359375 481.9375 L 600.761719 481.941406 Z M 158.199219 484.007812 C 157.878906 484.414062 157.679688 485.34375 157.390625 487.808594 C 156.914062 491.8125 156.960938 492.515625 157.71875 492.878906 C 158.917969 493.449219 159.652344 492.746094 159.851562 490.824219 C 159.917969 490.171875 160.042969 489.640625 160.132812 489.640625 C 160.328125 489.640625 164.824219 497.46875 164.890625 497.925781 C 164.960938 498.402344 169.101562 504.828125 172.113281 509.128906 C 190.5 535.410156 213.019531 557.550781 239.09375 574.996094 C 249.820312 582.171875 257.589844 586.667969 268.609375 592.078125 C 274.761719 595.101562 283.722656 599.105469 285.097656 599.453125 L 285.699219 599.601562 L 285.632812 598.113281 L 285.570312 596.628906 L 282.042969 595.152344 C 270.351562 590.253906 256.300781 582.863281 245.289062 575.816406 C 218.074219 558.410156 193.890625 535.214844 175.0625 508.460938 C 171.664062 503.628906 170.277344 501.421875 166.644531 495.035156 C 164.851562 491.886719 163.1875 488.988281 162.949219 488.589844 L 162.515625 487.875 L 163.085938 488.089844 C 163.402344 488.210938 163.949219 488.460938 164.304688 488.644531 C 165.222656 489.117188 165.925781 489.058594 166.480469 488.46875 C 167.578125 487.296875 166.964844 486.6875 162.902344 484.910156 C 161.097656 484.117188 159.394531 483.472656 159.121094 483.472656 C 158.84375 483.472656 158.429688 483.714844 158.199219 484.007812 M 344.097656 488.914062 C 342.167969 489.285156 342.699219 493.507812 345.367188 499 C 347.195312 502.761719 349.867188 506.398438 351.371094 507.179688 C 351.953125 507.480469 352.070312 507.480469 352.355469 507.195312 C 352.628906 506.925781 352.640625 506.664062 352.425781 505.578125 C 351.570312 501.261719 347.480469 491.71875 345.53125 489.496094 C 345.175781 489.089844 344.820312 488.773438 344.742188 488.789062 C 344.664062 488.804688 344.371094 488.863281 344.097656 488.914062 M 417.261719 490.628906 C 415.835938 491.480469 414.109375 493.988281 411.914062 498.382812 C 409.5625 503.101562 408.082031 507.296875 408.050781 509.351562 C 408.035156 510.5625 408.074219 510.679688 408.527344 510.746094 C 409.800781 510.925781 414.382812 504.4375 417.847656 497.546875 L 418.714844 495.816406 L 418.714844 492.949219 C 418.714844 489.742188 418.71875 489.75 417.261719 490.628906 M 336.363281 517.3125 C 335.386719 517.996094 335.238281 518.816406 335.238281 523.441406 C 335.238281 525.808594 335.164062 527.746094 335.070312 527.746094 C 334.980469 527.746094 333.535156 527.289062 331.855469 526.726562 C 328.371094 525.566406 327.78125 525.582031 326.925781 526.847656 L 326.425781 527.589844 L 326.425781 559.796875 C 326.425781 591.484375 326.433594 592.011719 326.859375 592.550781 C 327.097656 592.855469 327.570312 593.210938 327.90625 593.34375 C 329.09375 593.808594 334.523438 595.144531 339.640625 596.230469 C 364.507812 601.5 365.664062 601.972656 374.367188 610.347656 C 379.25 615.046875 379.695312 615.339844 380.972656 614.679688 C 381.320312 614.5 382.78125 613.078125 384.21875 611.519531 C 388.707031 606.65625 390.457031 605.171875 393.828125 603.351562 C 397.410156 601.417969 400.195312 600.59375 412.328125 597.894531 C 416.992188 596.855469 423.285156 595.363281 426.316406 594.574219 C 431.222656 593.292969 431.886719 593.066406 432.425781 592.484375 L 433.03125 591.832031 L 433.03125 527.0625 L 432.5 526.53125 C 431.585938 525.617188 431.089844 525.640625 427.8125 526.730469 C 426.140625 527.289062 424.699219 527.746094 424.609375 527.746094 C 424.515625 527.746094 424.441406 525.808594 424.441406 523.441406 C 424.441406 518.816406 424.292969 517.996094 423.316406 517.3125 C 422.582031 516.796875 422.046875 516.851562 418.253906 517.816406 C 416.386719 518.292969 413.226562 518.992188 411.226562 519.375 C 406.117188 520.347656 397.507812 522.488281 394.378906 523.5625 C 389.558594 525.214844 384.304688 528.058594 380.839844 530.890625 L 379.636719 531.871094 L 378.195312 530.714844 C 371.886719 525.644531 364.835938 522.855469 351.207031 520.039062 C 348.78125 519.539062 344.820312 518.636719 342.394531 518.039062 C 337.539062 516.839844 337.109375 516.789062 336.363281 517.3125 M 339.863281 552.234375 L 339.863281 582.28125 L 344.542969 583.421875 C 347.117188 584.046875 350.808594 584.867188 352.746094 585.238281 C 363.40625 587.28125 370.15625 589.789062 376.425781 594.027344 L 377.417969 594.699219 L 377.542969 536.003906 L 376.378906 534.941406 C 374.652344 533.363281 371.585938 531.375 368.644531 529.925781 C 364.179688 527.722656 359.03125 526.261719 346.25 523.570312 C 343.28125 522.945312 340.628906 522.378906 340.359375 522.3125 L 339.863281 522.191406 Z M 418.054688 522.578125 C 417.386719 522.746094 414.167969 523.4375 410.898438 524.121094 C 395.59375 527.3125 389.046875 529.851562 383.46875 534.761719 L 382.152344 535.921875 L 382.152344 565.441406 C 382.152344 581.675781 382.226562 594.925781 382.316406 594.886719 C 382.410156 594.847656 383.375 594.226562 384.464844 593.507812 C 387.117188 591.761719 391.554688 589.671875 394.925781 588.578125 C 398.328125 587.480469 401.171875 586.757812 409.355469 584.929688 C 412.867188 584.144531 416.660156 583.277344 417.78125 583 L 419.816406 582.5 L 419.816406 552.367188 C 419.816406 528.402344 419.761719 522.242188 419.542969 522.257812 C 419.390625 522.265625 418.722656 522.410156 418.054688 522.578125 M 427.304688 531.523438 C 426.640625 531.746094 425.675781 532.082031 425.160156 532.277344 L 424.226562 532.625 L 424.167969 558.800781 L 424.113281 584.976562 L 423.570312 585.550781 C 422.789062 586.386719 419.796875 587.183594 407.765625 589.757812 C 394.105469 592.679688 388.289062 595.199219 381.964844 600.925781 C 380.785156 601.996094 380.4375 602.191406 379.738281 602.191406 C 379.023438 602.191406 378.671875 601.980469 377.199219 600.664062 C 370.972656 595.109375 364.453125 592.359375 351.003906 589.625 C 347.867188 588.984375 339.765625 587.125 337.707031 586.566406 C 337.1875 586.425781 336.445312 586.027344 336.054688 585.679688 L 335.347656 585.046875 L 335.230469 532.617188 L 333.308594 532.042969 C 332.25 531.726562 331.257812 531.425781 331.105469 531.375 C 330.886719 531.300781 330.832031 537.1875 330.832031 560.308594 L 330.832031 589.339844 L 335.402344 590.570312 C 340.535156 591.953125 341.4375 592.164062 350.105469 594.042969 C 365.371094 597.347656 369.191406 599.140625 377.039062 606.703125 L 379.964844 609.523438 L 383.425781 606 C 387.300781 602.058594 389.074219 600.75 393.195312 598.800781 C 397.167969 596.917969 401.199219 595.765625 411.335938 593.613281 C 414.246094 592.996094 417.714844 592.238281 419.046875 591.925781 C 421.582031 591.335938 428.417969 589.480469 428.550781 589.347656 C 428.59375 589.304688 428.605469 576.183594 428.574219 560.191406 L 428.515625 531.117188 Z M 429.722656 612.820312 C 427.390625 613.996094 426.886719 617.015625 428.714844 618.84375 C 430.453125 620.582031 433.75 620.246094 434.976562 618.207031 C 437.046875 614.75 433.367188 610.976562 429.722656 612.820312 M 278.335938 614.675781 C 278.257812 614.753906 278.191406 622.4375 278.191406 631.746094 L 278.191406 648.667969 L 284.796875 648.667969 L 284.796875 636.992188 C 284.796875 627.21875 284.847656 625.320312 285.101562 625.320312 C 285.269531 625.320312 288.648438 630.574219 292.609375 636.992188 L 299.816406 648.667969 L 306.828125 648.667969 L 306.769531 631.652344 L 306.714844 614.636719 L 300.324219 614.636719 L 300.269531 625.59375 C 300.222656 634.144531 300.152344 636.550781 299.9375 636.546875 C 299.789062 636.546875 296.652344 631.695312 292.972656 625.769531 C 289.289062 619.839844 286.171875 614.886719 286.042969 614.761719 C 285.789062 614.503906 278.585938 614.421875 278.335938 614.675781 M 412.164062 617.460938 L 409.464844 617.914062 L 409.464844 622.898438 L 405.5 622.898438 L 405.5 628.183594 L 409.464844 628.183594 L 409.46875 635.285156 C 409.46875 642.582031 409.570312 643.65625 410.414062 645.28125 C 411.761719 647.886719 414.167969 649.109375 417.960938 649.109375 C 420.105469 649.109375 422.152344 648.625 423.476562 647.8125 L 424.160156 647.390625 L 423.363281 645.070312 C 422.925781 643.796875 422.496094 642.683594 422.410156 642.597656 C 422.324219 642.511719 421.738281 642.664062 421.105469 642.933594 C 420.21875 643.316406 419.664062 643.40625 418.679688 643.335938 C 417.1875 643.226562 416.421875 642.664062 416.074219 641.414062 C 415.953125 640.980469 415.855469 637.84375 415.855469 634.40625 L 415.851562 628.183594 L 423.121094 628.183594 L 423.121094 622.898438 L 415.851562 622.898438 L 415.851562 619.921875 C 415.851562 616.449219 416.316406 616.757812 412.164062 617.460938 M 321.96875 622.683594 C 319.253906 623.140625 316.34375 624.546875 314.605469 626.242188 L 313.6875 627.140625 L 315.046875 629.199219 C 315.792969 630.328125 316.492188 631.257812 316.601562 631.261719 C 316.707031 631.265625 317.234375 630.863281 317.769531 630.367188 C 319.25 629.003906 321.636719 627.957031 323.601562 627.8125 C 325.761719 627.652344 326.976562 627.992188 327.539062 628.910156 C 328.132812 629.886719 328.085938 630.871094 327.410156 631.675781 C 326.761719 632.449219 325.71875 632.820312 322.355469 633.46875 C 319.21875 634.078125 317.558594 634.640625 316.128906 635.578125 C 314.003906 636.972656 313.148438 638.683594 313.15625 641.507812 C 313.164062 643.472656 313.476562 644.613281 314.371094 645.941406 C 315.871094 648.171875 317.878906 649.109375 321.171875 649.109375 C 324.25 649.109375 326.320312 648.164062 327.636719 646.15625 C 328 645.605469 328.371094 645.152344 328.460938 645.148438 C 328.550781 645.144531 328.777344 645.515625 328.96875 645.96875 C 329.847656 648.078125 331.800781 649.035156 334.785156 648.828125 C 335.699219 648.765625 336.730469 648.582031 337.078125 648.421875 L 337.710938 648.132812 L 337.5625 646.144531 C 337.355469 643.347656 337.398438 643.429688 336.167969 643.546875 C 334.355469 643.722656 334.402344 643.917969 334.3125 635.671875 C 334.238281 628.957031 334.207031 628.441406 333.761719 627.34375 C 333.117188 625.75 331.984375 624.4375 330.625 623.695312 C 328.714844 622.65625 324.828125 622.203125 321.96875 622.683594 M 388.320312 622.769531 C 385.632812 623.332031 382.390625 625.027344 380.96875 626.609375 C 380.5625 627.0625 380.570312 627.089844 381.578125 628.703125 C 382.136719 629.605469 382.78125 630.566406 383.003906 630.84375 L 383.410156 631.34375 L 384.691406 630.300781 C 386.246094 629.03125 387.246094 628.507812 388.910156 628.070312 C 392.261719 627.199219 394.71875 628.070312 394.746094 630.136719 C 394.773438 631.964844 393.679688 632.625 389.25 633.460938 C 385.351562 634.195312 383.335938 635.011719 381.847656 636.460938 C 380.457031 637.8125 380.058594 638.933594 380.058594 641.515625 C 380.058594 643.5625 380.113281 643.824219 380.785156 645.191406 C 382.046875 647.757812 384.046875 648.917969 387.464844 649.066406 C 390.882812 649.214844 393.0625 648.292969 394.554688 646.070312 C 394.898438 645.558594 395.246094 645.148438 395.328125 645.15625 C 395.410156 645.164062 395.730469 645.679688 396.035156 646.308594 C 396.449219 647.152344 396.871094 647.617188 397.671875 648.113281 C 398.671875 648.730469 398.894531 648.777344 400.859375 648.777344 C 402.054688 648.777344 403.328125 648.652344 403.796875 648.484375 L 404.628906 648.191406 L 404.484375 646.722656 C 404.40625 645.914062 404.277344 644.855469 404.199219 644.371094 L 404.054688 643.492188 L 403.070312 643.558594 C 402.453125 643.601562 401.921875 643.507812 401.644531 643.300781 C 401.222656 642.992188 401.199219 642.65625 401.09375 635.523438 L 400.984375 628.074219 L 400.367188 626.816406 C 399.511719 625.070312 397.988281 623.757812 396.101562 623.136719 C 394.195312 622.503906 390.414062 622.328125 388.320312 622.769531 M 477.351562 622.792969 C 474.394531 623.433594 471.929688 624.988281 470.339844 627.21875 C 468.703125 629.511719 467.832031 632.480469 467.835938 635.746094 C 467.84375 642.664062 471.15625 647.417969 476.917969 648.777344 C 478.550781 649.160156 482.53125 649.207031 484.175781 648.863281 C 485.90625 648.5 487.507812 647.671875 488.847656 646.445312 C 489.917969 645.46875 491.585938 643.246094 491.375 643.078125 C 490.65625 642.503906 486.953125 640.277344 486.804688 640.332031 C 486.695312 640.375 486.273438 640.847656 485.863281 641.386719 C 485.4375 641.949219 484.652344 642.605469 484.027344 642.929688 C 483.066406 643.421875 482.660156 643.492188 480.722656 643.488281 C 478.871094 643.488281 478.371094 643.410156 477.601562 643 C 475.992188 642.144531 474.996094 640.542969 474.578125 638.148438 L 474.453125 637.433594 L 482.652344 637.429688 C 487.449219 637.429688 490.988281 637.339844 491.179688 637.21875 C 491.621094 636.941406 491.636719 631.917969 491.203125 630.164062 C 490.472656 627.210938 488.652344 624.824219 486.265625 623.695312 C 483.816406 622.539062 480.203125 622.171875 477.351562 622.792969 M 353.238281 622.917969 C 351.410156 623.347656 349.855469 624.550781 349.003906 626.203125 C 348.429688 627.3125 348.234375 626.972656 348.234375 624.875 L 348.234375 622.886719 L 345.09375 622.945312 L 341.957031 623.007812 L 341.898438 635.835938 L 341.839844 648.667969 L 348.421875 648.667969 L 348.503906 641.125 C 348.578125 634.667969 348.644531 633.410156 348.976562 632.402344 C 349.445312 630.980469 350.820312 629.410156 351.917969 629.046875 C 352.910156 628.71875 355.191406 628.722656 356.035156 629.050781 C 356.964844 629.414062 357.128906 629.128906 357.707031 626.125 C 358.277344 623.171875 358.316406 623.289062 356.535156 622.902344 C 355.308594 622.640625 354.398438 622.644531 353.238281 622.917969 M 373.050781 622.992188 C 371.542969 623.398438 370.253906 624.378906 369.488281 625.707031 C 368.511719 627.390625 368.277344 627.230469 368.277344 624.878906 L 368.277344 622.898438 L 362.109375 622.898438 L 362.109375 648.667969 L 368.496094 648.667969 L 368.5 642.113281 C 368.5 638.511719 368.605469 634.917969 368.730469 634.132812 C 369.332031 630.421875 370.976562 628.789062 374.097656 628.800781 C 374.953125 628.800781 375.910156 628.902344 376.222656 629.023438 C 376.535156 629.144531 376.894531 629.179688 377.015625 629.101562 C 377.140625 629.019531 377.476562 627.734375 377.761719 626.242188 C 378.347656 623.171875 378.394531 623.292969 376.582031 622.902344 C 375.230469 622.613281 374.378906 622.636719 373.050781 622.992188 M 428.40625 635.78125 L 428.40625 648.667969 L 434.792969 648.667969 L 434.792969 622.898438 L 428.40625 622.898438 Z M 438.988281 623.0625 C 438.992188 623.152344 441.109375 628.925781 443.691406 635.890625 L 448.382812 648.558594 L 456.226562 648.558594 L 460.820312 636.113281 C 463.34375 629.269531 465.46875 623.492188 465.539062 623.277344 C 465.65625 622.910156 465.441406 622.890625 462.320312 622.945312 L 458.980469 623.007812 L 456.136719 631.15625 C 452.574219 641.375 452.652344 641.179688 452.34375 641.179688 C 452.199219 641.175781 450.652344 637.0625 448.90625 632.035156 L 445.722656 622.898438 L 442.351562 622.898438 C 440.496094 622.898438 438.984375 622.972656 438.988281 623.0625 M 478.457031 627.832031 C 477.9375 628 477.175781 628.398438 476.765625 628.710938 C 475.996094 629.296875 475.023438 631.050781 474.769531 632.3125 L 474.625 633.027344 L 485.386719 633.027344 L 485.191406 631.769531 C 484.769531 629.097656 483.414062 627.820312 480.792969 627.625 C 479.921875 627.5625 479.042969 627.640625 478.457031 627.832031 M 326.867188 636.460938 C 326.566406 636.625 325.574219 636.921875 324.664062 637.117188 C 320.71875 637.960938 319.8125 638.585938 319.648438 640.59375 C 319.453125 642.925781 320.769531 644.265625 323.234375 644.242188 C 324.640625 644.226562 325.589844 643.875 326.464844 643.050781 C 327.53125 642.042969 327.945312 640.863281 328.109375 638.34375 C 328.246094 636.242188 328.230469 636.113281 327.835938 636.132812 C 327.605469 636.144531 327.171875 636.292969 326.867188 636.460938 M 393.757812 636.464844 C 393.414062 636.652344 392.175781 637.007812 391.003906 637.257812 C 387.359375 638.035156 386.464844 638.804688 386.484375 641.140625 C 386.503906 643.144531 387.796875 644.265625 390.082031 644.257812 C 393.292969 644.246094 394.929688 642.113281 394.929688 637.945312 C 394.929688 635.957031 394.859375 635.871094 393.757812 636.464844 " fill-opacity="1" fill-rule="evenodd"/></svg>